<svg id="svg" version="1.1" xmlns="http://www.w3.org/2000/svg" xmlns:xlink="http://www.w3.org/1999/xlink" width="400" height="312.5" viewBox="0, 0, 400,312.5"><g id="svgg"><path id="path0" d="M198.413 13.053 C 197.970 13.522,196.884 14.513,196.001 15.254 C 193.474 17.374,185.293 25.708,183.281 28.212 C 183.109 28.425,182.477 29.171,181.875 29.867 C 181.273 30.564,180.359 31.657,179.844 32.296 C 179.328 32.935,178.313 34.121,177.587 34.932 C 176.861 35.743,176.264 36.496,176.259 36.606 C 176.254 36.716,175.761 37.349,175.164 38.012 C 174.566 38.676,174.074 39.303,174.070 39.405 C 174.066 39.508,173.808 39.886,173.496 40.245 C 173.185 40.604,172.657 41.270,172.324 41.724 C 171.991 42.179,171.477 42.837,171.181 43.187 C 170.885 43.538,170.560 44.089,170.457 44.412 C 170.354 44.735,170.163 45.000,170.032 45.000 C 169.900 45.000,169.337 45.703,168.780 46.563 C 168.223 47.422,167.602 48.301,167.400 48.516 C 167.197 48.730,166.833 49.291,166.591 49.760 C 166.348 50.230,165.926 50.863,165.653 51.167 C 165.380 51.470,164.560 52.633,163.832 53.750 C 163.104 54.867,162.225 56.133,161.879 56.563 C 161.533 56.992,161.075 57.730,160.861 58.203 C 160.647 58.676,160.366 59.063,160.236 59.063 C 160.106 59.063,160.000 59.273,160.000 59.531 C 160.000 59.789,159.881 60.000,159.735 60.000 C 159.589 60.000,159.227 60.540,158.929 61.199 C 158.632 61.859,158.045 62.798,157.626 63.286 C 157.207 63.774,156.560 64.781,156.189 65.524 C 155.818 66.267,155.399 66.875,155.257 66.875 C 155.116 66.875,155.000 67.156,155.000 67.500 C 155.000 67.844,154.859 68.125,154.688 68.125 C 154.516 68.125,154.375 68.324,154.375 68.568 C 154.375 68.811,154.252 69.057,154.102 69.115 C 153.952 69.172,153.463 69.922,153.014 70.781 C 152.566 71.641,151.626 73.328,150.927 74.531 C 150.227 75.734,149.575 76.965,149.478 77.266 C 149.381 77.566,149.204 77.812,149.084 77.813 C 148.965 77.813,148.674 78.305,148.438 78.906 C 148.201 79.508,147.894 80.000,147.754 80.000 C 147.614 80.000,147.500 80.211,147.500 80.469 C 147.500 80.727,147.359 80.938,147.188 80.938 C 147.016 80.938,146.875 81.219,146.875 81.563 C 146.875 81.906,146.734 82.188,146.563 82.188 C 146.391 82.188,146.250 82.047,146.250 81.875 C 146.250 81.703,146.004 81.562,145.703 81.561 C 145.402 81.560,144.464 81.209,143.619 80.780 C 142.773 80.351,141.824 80.000,141.510 80.000 C 141.195 80.000,140.938 79.859,140.938 79.688 C 140.938 79.516,140.656 79.375,140.313 79.375 C 139.969 79.375,139.688 79.264,139.688 79.129 C 139.687 78.993,138.773 78.607,137.656 78.269 C 136.539 77.932,135.625 77.551,135.625 77.422 C 135.625 77.293,135.273 77.188,134.844 77.188 C 134.414 77.188,134.063 77.047,134.063 76.875 C 134.063 76.703,133.711 76.563,133.281 76.563 C 132.852 76.563,132.500 76.422,132.500 76.250 C 132.500 76.078,132.235 75.938,131.911 75.938 C 131.587 75.938,130.919 75.727,130.426 75.471 C 129.934 75.214,129.215 75.003,128.828 75.002 C 128.441 75.001,128.125 74.859,128.125 74.688 C 128.125 74.516,127.773 74.375,127.344 74.375 C 126.914 74.375,126.563 74.234,126.563 74.063 C 126.563 73.891,126.211 73.750,125.781 73.750 C 125.352 73.750,125.000 73.609,125.000 73.438 C 125.000 73.266,124.586 73.125,124.081 73.125 C 123.575 73.125,123.075 72.984,122.969 72.812 C 122.863 72.641,122.468 72.501,122.091 72.502 C 121.395 72.503,118.727 71.713,117.739 71.212 C 117.440 71.061,116.772 70.937,116.254 70.938 C 115.736 70.938,115.313 70.797,115.313 70.625 C 115.313 70.453,114.891 70.313,114.375 70.313 C 113.859 70.313,113.438 70.190,113.438 70.041 C 113.438 69.891,112.840 69.680,112.109 69.571 C 109.284 69.150,106.604 68.583,106.380 68.359 C 106.251 68.230,105.607 68.125,104.948 68.125 C 104.289 68.125,103.750 67.984,103.750 67.813 C 103.750 67.641,103.117 67.500,102.344 67.500 C 101.570 67.500,100.938 67.359,100.938 67.188 C 100.938 67.016,100.192 66.875,99.281 66.875 C 98.370 66.875,97.487 66.737,97.319 66.569 C 97.151 66.401,94.593 66.168,91.635 66.052 L 86.258 65.840 85.627 67.267 C 85.280 68.052,84.908 69.131,84.801 69.666 C 84.694 70.201,84.484 70.714,84.335 70.806 C 84.185 70.899,84.062 71.318,84.063 71.737 C 84.063 72.157,83.922 72.500,83.750 72.500 C 83.578 72.500,83.438 72.922,83.438 73.438 C 83.438 73.953,83.310 74.375,83.154 74.375 C 82.999 74.375,82.774 75.078,82.656 75.937 C 82.538 76.796,82.314 77.578,82.158 77.674 C 82.002 77.771,81.875 78.255,81.875 78.750 C 81.875 79.245,81.734 79.738,81.563 79.844 C 81.391 79.950,81.250 80.442,81.250 80.938 C 81.250 81.433,81.109 81.925,80.938 82.031 C 80.766 82.137,80.625 82.708,80.625 83.300 C 80.625 83.891,80.484 84.375,80.313 84.375 C 80.141 84.375,80.001 84.762,80.001 85.234 C 80.003 86.266,79.088 91.150,78.728 92.031 C 78.462 92.683,78.215 94.273,77.927 97.188 C 77.834 98.133,77.629 99.040,77.473 99.203 C 77.316 99.366,77.187 100.292,77.187 101.260 C 77.187 102.229,77.082 103.125,76.953 103.253 C 76.824 103.381,76.541 105.690,76.323 108.383 C 76.106 111.077,75.791 114.617,75.623 116.250 C 75.456 117.883,75.241 121.398,75.145 124.063 C 75.049 126.727,74.824 129.200,74.646 129.560 C 74.468 129.920,74.369 131.288,74.427 132.600 L 74.531 134.986 63.594 135.127 C 57.578 135.205,51.039 135.414,49.063 135.593 C 47.086 135.771,43.254 136.081,40.547 136.281 C 37.840 136.481,35.625 136.767,35.625 136.916 C 35.625 137.065,34.528 137.188,33.187 137.188 C 31.847 137.188,30.616 137.314,30.453 137.468 C 30.290 137.622,29.594 137.822,28.906 137.911 C 28.219 138.001,27.023 138.229,26.250 138.419 C 25.477 138.608,24.000 138.903,22.969 139.074 C 18.529 139.810,16.853 140.186,17.065 140.398 C 17.190 140.523,16.635 140.625,15.833 140.625 C 15.031 140.625,14.375 140.766,14.375 140.938 C 14.375 141.109,13.961 141.250,13.456 141.250 C 12.950 141.250,12.450 141.391,12.344 141.563 C 12.238 141.734,11.816 141.875,11.406 141.875 C 10.997 141.875,10.577 142.012,10.474 142.178 C 10.371 142.345,9.589 142.574,8.737 142.687 C 7.885 142.801,7.188 143.016,7.188 143.165 C 7.188 143.315,6.836 143.438,6.406 143.438 C 5.977 143.438,5.625 143.578,5.625 143.750 C 5.625 143.922,5.344 144.063,5.000 144.063 C 4.656 144.063,4.375 144.263,4.375 144.508 C 4.375 144.852,5.215 144.682,8.047 143.764 C 11.676 142.588,16.333 141.277,19.063 140.663 C 22.556 139.878,24.928 139.379,25.938 139.218 C 26.539 139.121,27.926 138.905,29.020 138.736 C 30.114 138.568,31.102 138.372,31.216 138.302 C 31.425 138.173,34.252 137.837,41.875 137.034 C 51.023 136.070,59.219 135.625,67.806 135.625 L 75.250 135.625 75.442 131.641 C 75.927 121.593,76.783 110.899,77.512 105.781 C 78.617 98.016,79.244 94.323,80.428 88.594 C 81.870 81.616,85.522 68.871,86.563 67.187 C 86.993 66.491,95.057 67.028,100.313 68.103 C 101.086 68.261,102.633 68.557,103.750 68.761 C 113.932 70.622,133.264 76.961,144.294 82.056 C 147.238 83.416,146.914 83.521,148.459 80.703 C 151.535 75.095,152.834 72.860,156.676 66.563 C 169.891 44.903,186.815 23.743,198.516 14.254 L 200.000 13.050 201.478 14.259 C 212.450 23.235,231.456 46.739,241.623 63.906 C 242.234 64.938,243.545 67.117,244.536 68.750 C 246.951 72.728,247.405 73.510,250.229 78.555 C 253.061 83.615,252.865 83.480,255.562 82.244 C 260.474 79.993,269.866 76.395,277.188 73.961 C 285.059 71.344,295.988 68.749,302.969 67.841 C 312.985 66.536,312.921 66.535,313.534 68.066 C 315.326 72.547,317.776 81.025,319.104 87.344 C 319.284 88.203,319.552 89.398,319.700 90.000 C 319.847 90.602,320.037 91.586,320.121 92.188 C 320.205 92.789,320.486 94.477,320.746 95.938 C 321.380 99.510,322.398 107.026,322.946 112.188 C 323.351 116.009,323.652 120.352,324.309 131.875 L 324.531 135.781 334.531 135.980 C 359.041 136.468,380.720 139.683,393.702 144.757 L 395.372 145.409 395.185 147.002 C 395.001 148.576,394.819 150.410,394.516 153.750 C 393.907 160.475,389.394 179.432,387.187 184.531 C 387.039 184.875,386.469 186.422,385.921 187.969 C 377.564 211.570,362.506 238.115,346.920 256.719 C 319.597 289.334,289.595 304.041,261.493 298.595 C 247.645 295.912,245.125 288.418,253.713 275.459 C 261.352 263.931,274.800 254.444,295.156 246.226 C 300.334 244.135,309.554 241.519,316.087 240.286 C 316.950 240.123,317.938 239.906,318.281 239.803 C 319.598 239.411,318.204 240.322,314.843 242.049 C 288.130 255.778,270.323 267.948,267.086 274.688 C 259.677 290.116,285.355 294.121,302.969 280.285 C 323.414 264.223,350.355 219.418,362.800 180.781 C 363.519 178.547,364.235 176.438,364.390 176.094 C 365.384 173.886,367.979 163.385,367.706 162.674 C 367.370 161.797,355.762 158.955,348.594 157.995 C 333.925 156.031,310.969 155.525,297.344 156.867 C 295.625 157.037,293.094 157.260,291.719 157.364 C 290.344 157.469,288.867 157.602,288.438 157.661 C 288.008 157.721,286.570 157.865,285.243 157.983 C 282.050 158.266,282.023 158.313,282.815 162.198 C 284.560 170.762,285.402 184.934,284.605 192.344 C 282.227 214.473,274.221 233.164,260.576 248.438 C 257.995 251.327,252.032 257.055,251.008 257.629 C 250.441 257.947,250.355 258.068,253.768 253.710 C 271.640 230.887,275.601 201.662,265.529 166.929 C 263.795 160.950,264.410 161.354,259.047 162.669 C 227.645 170.365,208.756 186.222,200.894 211.484 C 200.003 214.347,200.040 214.364,198.787 210.547 C 192.867 192.510,179.076 177.243,161.875 169.683 C 152.592 165.603,136.809 161.030,136.081 162.208 C 134.946 164.045,130.644 181.808,129.880 187.813 C 127.705 204.914,129.296 218.761,135.182 233.951 C 138.020 241.277,144.059 251.593,147.989 255.832 C 150.134 258.146,149.611 258.350,147.105 256.177 C 121.648 234.109,110.235 198.916,116.878 162.969 C 117.785 158.059,118.211 158.575,112.764 157.987 C 106.358 157.296,105.628 157.237,98.438 156.834 C 72.895 155.402,46.610 157.619,33.906 162.277 C 32.398 162.830,32.380 163.178,33.612 167.969 C 34.975 173.266,40.579 190.014,42.187 193.594 C 42.341 193.938,43.683 197.102,45.169 200.625 C 60.212 236.308,80.081 266.841,96.719 279.841 C 114.423 293.675,140.455 290.130,132.859 274.919 C 129.238 267.668,110.673 255.101,83.108 241.242 C 79.662 239.509,80.261 239.268,85.357 240.335 C 111.811 245.877,135.846 259.680,146.315 275.344 C 154.791 288.024,152.563 295.689,139.609 298.420 C 126.917 301.095,114.347 299.921,101.563 294.865 C 69.309 282.110,36.210 243.591,16.959 196.406 C 14.649 190.744,11.920 183.250,10.986 180.000 C 10.814 179.398,10.371 177.922,10.004 176.719 C 8.097 170.477,6.478 163.116,5.486 156.182 C 5.068 153.262,4.628 150.781,4.507 150.670 C 4.177 150.365,4.616 158.129,4.953 158.545 C 5.114 158.744,5.325 159.539,5.421 160.313 C 5.825 163.542,6.422 166.842,6.641 167.059 C 6.770 167.187,6.875 167.760,6.875 168.333 C 6.875 168.906,7.016 169.375,7.188 169.375 C 7.359 169.375,7.500 169.859,7.500 170.450 C 7.500 171.042,7.641 171.613,7.813 171.719 C 7.984 171.825,8.125 172.232,8.125 172.623 C 8.125 173.014,8.228 173.437,8.355 173.563 C 8.580 173.789,9.240 176.366,9.582 178.359 C 9.677 178.918,9.881 179.375,10.034 179.375 C 10.187 179.375,10.313 179.799,10.313 180.317 C 10.313 180.835,10.441 181.503,10.599 181.801 C 11.266 183.067,11.853 184.632,12.207 186.094 C 12.415 186.953,12.706 187.790,12.855 187.953 C 13.003 188.116,13.125 188.573,13.125 188.969 C 13.125 189.364,13.266 189.688,13.438 189.688 C 13.609 189.688,13.750 189.960,13.750 190.294 C 13.750 190.628,13.891 190.988,14.063 191.094 C 14.234 191.200,14.375 191.630,14.375 192.050 C 14.375 192.469,14.500 192.813,14.653 192.813 C 14.805 192.813,15.025 193.315,15.140 193.930 C 15.255 194.544,15.623 195.533,15.956 196.127 C 16.290 196.721,16.562 197.413,16.562 197.666 C 16.562 197.918,16.703 198.125,16.875 198.125 C 17.047 198.125,17.188 198.401,17.188 198.739 C 17.188 199.077,17.539 199.983,17.969 200.752 C 18.398 201.522,18.750 202.441,18.750 202.795 C 18.750 203.148,18.891 203.438,19.063 203.438 C 19.234 203.438,19.375 203.719,19.375 204.063 C 19.375 204.406,19.516 204.688,19.688 204.688 C 19.859 204.688,20.000 204.969,20.000 205.313 C 20.000 205.656,20.141 205.938,20.313 205.938 C 20.484 205.938,20.625 206.127,20.625 206.358 C 20.625 206.899,21.589 208.966,23.999 213.594 C 24.357 214.281,24.895 215.406,25.193 216.094 C 25.492 216.781,25.970 217.695,26.257 218.125 C 26.543 218.555,27.266 219.820,27.862 220.938 C 30.378 225.647,32.009 228.437,32.246 228.438 C 32.386 228.438,32.500 228.719,32.500 229.063 C 32.500 229.406,32.611 229.688,32.747 229.688 C 32.882 229.687,33.396 230.458,33.889 231.399 C 34.381 232.341,35.008 233.360,35.283 233.665 C 35.557 233.969,36.063 234.756,36.406 235.412 C 36.750 236.068,37.277 236.871,37.578 237.196 C 37.879 237.520,38.125 237.906,38.125 238.053 C 38.125 238.200,38.378 238.592,38.687 238.925 C 38.995 239.259,39.920 240.571,40.741 241.842 C 41.562 243.113,42.434 244.354,42.679 244.599 C 42.924 244.844,43.125 245.140,43.126 245.257 C 43.126 245.373,43.548 245.961,44.062 246.563 C 44.577 247.164,44.999 247.832,44.999 248.047 C 45.000 248.262,45.105 248.438,45.234 248.440 C 45.363 248.441,45.820 248.960,46.250 249.594 C 46.680 250.228,47.348 251.064,47.734 251.453 C 48.121 251.841,48.437 252.294,48.437 252.460 C 48.438 252.625,48.543 252.807,48.672 252.865 C 48.801 252.922,49.466 253.672,50.150 254.531 C 50.834 255.391,51.537 256.261,51.712 256.465 C 51.888 256.669,52.453 257.349,52.969 257.977 C 53.484 258.605,54.258 259.521,54.688 260.013 C 55.117 260.505,56.031 261.554,56.719 262.343 C 59.940 266.042,69.113 274.975,72.499 277.711 C 73.101 278.196,73.916 278.910,74.311 279.297 C 74.705 279.684,75.127 280.001,75.249 280.001 C 75.370 280.002,75.918 280.424,76.467 280.939 C 77.017 281.454,77.603 281.875,77.770 281.875 C 77.936 281.875,78.120 281.983,78.177 282.115 C 78.234 282.247,79.055 282.912,80.000 283.594 C 80.945 284.275,81.766 284.941,81.823 285.073 C 81.880 285.205,82.126 285.312,82.370 285.312 C 82.613 285.313,82.813 285.431,82.812 285.575 C 82.812 285.719,83.373 286.106,84.059 286.434 C 84.744 286.763,85.307 287.137,85.309 287.266 C 85.311 287.395,85.523 287.500,85.781 287.500 C 86.039 287.500,86.250 287.641,86.250 287.813 C 86.250 287.984,86.461 288.125,86.719 288.125 C 86.977 288.125,87.188 288.235,87.187 288.369 C 87.187 288.503,87.574 288.775,88.047 288.972 C 89.173 289.443,90.754 290.407,90.885 290.703 C 90.943 290.832,91.189 290.937,91.432 290.937 C 91.676 290.938,91.875 291.078,91.875 291.250 C 91.875 291.422,92.076 291.563,92.321 291.563 C 92.566 291.563,93.711 292.055,94.865 292.656 C 96.020 293.258,97.155 293.750,97.388 293.750 C 97.622 293.750,97.813 293.891,97.813 294.063 C 97.813 294.234,98.094 294.375,98.438 294.375 C 98.781 294.375,99.063 294.500,99.062 294.653 C 99.062 294.805,99.572 295.026,100.195 295.143 C 100.817 295.260,101.626 295.508,101.992 295.695 C 103.487 296.460,103.769 296.562,104.371 296.562 C 104.717 296.563,105.000 296.703,105.000 296.875 C 105.000 297.047,105.352 297.188,105.781 297.188 C 106.211 297.188,106.563 297.298,106.563 297.433 C 106.562 297.674,109.018 298.296,111.330 298.641 C 111.976 298.737,112.582 298.942,112.677 299.096 C 112.772 299.249,113.375 299.375,114.018 299.375 C 114.661 299.375,115.363 299.551,115.578 299.766 C 116.143 300.331,137.294 300.331,137.859 299.766 C 138.074 299.551,138.637 299.375,139.110 299.375 C 139.583 299.375,140.294 299.246,140.688 299.088 C 141.083 298.930,142.284 298.543,143.357 298.228 C 144.429 297.914,145.308 297.551,145.310 297.422 C 145.311 297.293,145.594 297.188,145.938 297.188 C 146.281 297.188,146.563 297.047,146.563 296.875 C 146.563 296.703,146.773 296.563,147.031 296.563 C 147.289 296.563,147.500 296.457,147.501 296.328 C 147.501 296.199,147.932 295.813,148.458 295.469 C 149.584 294.733,151.562 292.167,151.563 291.443 C 151.563 291.165,151.703 290.938,151.875 290.938 C 152.289 290.938,152.289 285.099,151.875 284.844 C 151.703 284.738,151.562 284.376,151.563 284.040 C 151.563 283.704,151.433 283.185,151.275 282.886 C 151.116 282.588,150.476 281.240,149.851 279.891 C 149.227 278.542,148.443 277.144,148.108 276.785 C 147.774 276.426,147.500 275.983,147.500 275.800 C 147.499 275.618,147.148 275.060,146.718 274.561 C 146.289 274.061,145.937 273.569,145.937 273.467 C 145.936 273.365,145.509 272.789,144.986 272.188 C 144.464 271.586,143.726 270.696,143.346 270.210 C 141.907 268.369,136.738 263.401,134.516 261.724 C 133.044 260.613,132.263 259.982,131.706 259.453 C 131.480 259.238,131.144 259.063,130.960 259.063 C 130.776 259.063,130.622 258.957,130.619 258.828 C 130.615 258.699,129.912 258.178,129.056 257.670 C 128.200 257.162,127.500 256.634,127.500 256.498 C 127.500 256.362,127.289 256.250,127.031 256.250 C 126.773 256.250,126.563 256.140,126.563 256.006 C 126.563 255.872,126.176 255.600,125.703 255.403 C 124.577 254.932,122.996 253.968,122.865 253.672 C 122.807 253.543,122.561 253.437,122.318 253.438 C 122.074 253.438,121.875 253.328,121.875 253.194 C 121.875 253.060,121.172 252.677,120.312 252.344 C 119.453 252.010,118.750 251.628,118.750 251.494 C 118.750 251.360,118.469 251.250,118.125 251.250 C 117.781 251.250,117.500 251.109,117.500 250.938 C 117.500 250.766,117.289 250.625,117.031 250.625 C 116.773 250.625,116.563 250.484,116.563 250.313 C 116.563 250.141,116.373 250.000,116.142 250.000 C 115.722 250.000,114.671 249.556,112.392 248.414 C 111.732 248.083,110.993 247.813,110.752 247.813 C 110.510 247.813,110.313 247.672,110.313 247.500 C 110.313 247.328,110.031 247.188,109.688 247.188 C 109.344 247.188,109.063 247.063,109.063 246.910 C 109.063 246.757,108.560 246.538,107.945 246.422 C 107.331 246.307,106.342 245.940,105.748 245.606 C 105.154 245.273,104.392 245.000,104.053 245.000 C 103.714 245.000,103.438 244.859,103.438 244.688 C 103.438 244.516,103.086 244.375,102.656 244.375 C 102.227 244.375,101.875 244.234,101.875 244.063 C 101.875 243.891,101.528 243.750,101.105 243.750 C 100.286 243.750,97.706 242.995,96.801 242.490 C 96.503 242.324,95.905 242.188,95.473 242.188 C 95.041 242.188,94.688 242.047,94.688 241.875 C 94.688 241.703,94.195 241.563,93.594 241.563 C 92.992 241.563,92.500 241.422,92.500 241.250 C 92.500 241.078,92.086 240.938,91.581 240.938 C 91.075 240.937,90.584 240.811,90.488 240.657 C 90.393 240.502,89.329 240.277,88.125 240.156 C 86.921 240.035,85.857 239.810,85.762 239.656 C 85.666 239.501,84.972 239.375,84.219 239.375 C 83.466 239.375,82.762 239.234,82.656 239.063 C 82.550 238.891,81.850 238.750,81.101 238.750 C 80.298 238.750,79.680 238.590,79.594 238.359 C 79.496 238.098,79.370 238.157,79.214 238.536 C 78.841 239.439,79.564 240.616,80.622 240.827 C 81.139 240.931,81.563 241.139,81.563 241.289 C 81.563 241.439,81.844 241.563,82.188 241.563 C 82.531 241.563,82.813 241.703,82.813 241.875 C 82.813 242.047,83.082 242.188,83.411 242.188 C 83.741 242.188,84.057 242.293,84.115 242.422 C 84.172 242.551,85.344 243.219,86.719 243.906 C 88.094 244.594,89.266 245.262,89.323 245.391 C 89.380 245.520,89.697 245.625,90.026 245.625 C 90.355 245.625,90.629 245.730,90.633 245.859 C 90.637 245.988,91.550 246.516,92.660 247.031 C 93.771 247.547,94.681 248.074,94.684 248.203 C 94.686 248.332,94.969 248.438,95.313 248.438 C 95.656 248.438,95.939 248.543,95.940 248.672 C 95.942 248.801,96.575 249.184,97.347 249.523 C 98.119 249.862,98.750 250.233,98.750 250.346 C 98.750 250.459,98.996 250.633,99.297 250.733 C 99.598 250.832,100.688 251.419,101.719 252.037 C 102.750 252.655,103.840 253.239,104.141 253.335 C 104.441 253.432,104.687 253.635,104.688 253.786 C 104.688 253.938,104.898 254.063,105.156 254.063 C 105.414 254.063,105.625 254.170,105.625 254.301 C 105.625 254.433,106.212 254.795,106.930 255.106 C 108.336 255.715,111.028 257.460,111.198 257.872 C 111.255 258.011,111.468 258.125,111.671 258.125 C 112.005 258.125,115.251 260.158,115.625 260.602 C 115.711 260.704,116.318 261.067,116.974 261.409 C 117.630 261.751,118.433 262.277,118.758 262.578 C 119.083 262.879,119.495 263.125,119.674 263.125 C 119.853 263.125,120.000 263.266,120.000 263.438 C 120.000 263.609,120.151 263.750,120.335 263.750 C 120.519 263.750,120.855 263.926,121.081 264.141 C 121.308 264.355,121.886 264.813,122.365 265.156 C 122.845 265.500,123.530 266.063,123.887 266.406 C 124.243 266.750,125.097 267.449,125.783 267.959 C 128.416 269.915,132.188 274.218,132.188 275.265 C 132.188 275.615,132.313 275.978,132.465 276.072 C 132.726 276.234,132.904 276.992,133.323 279.729 C 133.425 280.399,133.356 280.951,133.154 281.076 C 132.966 281.192,132.813 281.700,132.813 282.206 C 132.813 282.711,132.672 283.125,132.500 283.125 C 132.328 283.125,132.188 283.330,132.188 283.580 C 132.187 284.260,130.791 285.525,129.541 285.977 C 128.934 286.196,128.437 286.488,128.438 286.625 C 128.438 286.763,128.027 286.875,127.526 286.875 C 127.025 286.875,126.561 287.037,126.495 287.234 C 126.331 287.727,114.289 287.710,114.124 287.217 C 114.062 287.029,113.538 286.875,112.961 286.875 C 112.384 286.875,111.835 286.751,111.741 286.599 C 111.647 286.447,110.915 286.224,110.114 286.104 C 108.692 285.890,108.391 285.790,106.957 285.049 C 106.573 284.850,106.046 284.688,105.785 284.688 C 105.525 284.688,105.313 284.547,105.313 284.375 C 105.313 284.203,105.031 284.063,104.688 284.063 C 104.344 284.063,104.063 283.922,104.063 283.750 C 104.063 283.578,103.815 283.438,103.511 283.438 C 102.949 283.437,99.616 281.354,99.427 280.884 C 99.370 280.742,99.124 280.625,98.880 280.625 C 98.637 280.625,98.438 280.506,98.438 280.360 C 98.438 280.215,98.165 279.969,97.833 279.813 C 96.551 279.215,85.318 268.530,85.309 267.901 C 85.307 267.766,84.710 267.009,83.981 266.219 C 83.252 265.428,82.375 264.391,82.031 263.914 C 81.688 263.437,81.090 262.719,80.703 262.319 C 80.316 261.918,80.000 261.504,80.000 261.398 C 80.000 261.292,79.824 261.020,79.609 260.794 C 79.395 260.567,78.946 260.006,78.613 259.546 C 78.280 259.086,77.757 258.421,77.451 258.068 C 77.144 257.715,76.810 257.161,76.707 256.838 C 76.604 256.515,76.421 256.250,76.300 256.250 C 76.179 256.250,75.815 255.758,75.491 255.156 C 75.167 254.555,74.783 254.063,74.638 254.063 C 74.493 254.063,74.375 253.873,74.375 253.642 C 74.375 253.411,74.079 252.954,73.717 252.627 C 73.355 252.299,72.797 251.519,72.477 250.892 C 72.157 250.265,71.715 249.562,71.494 249.329 C 71.273 249.097,70.811 248.369,70.468 247.713 C 70.125 247.057,69.598 246.254,69.297 245.929 C 68.996 245.605,68.750 245.122,68.750 244.857 C 68.750 244.592,68.632 244.375,68.487 244.375 C 68.343 244.375,67.826 243.637,67.340 242.734 C 66.853 241.832,66.374 241.023,66.274 240.938 C 66.174 240.852,65.882 240.359,65.625 239.844 C 65.368 239.328,65.075 238.836,64.975 238.750 C 64.875 238.664,64.296 237.680,63.689 236.563 C 63.082 235.445,62.107 233.688,61.522 232.656 C 60.937 231.625,60.110 230.078,59.683 229.219 C 59.256 228.359,58.836 227.586,58.750 227.500 C 58.323 227.073,57.181 224.687,57.402 224.683 C 57.542 224.680,57.516 224.575,57.344 224.448 C 56.799 224.048,54.067 218.844,54.064 218.203 C 54.063 217.988,53.922 217.813,53.750 217.813 C 53.578 217.813,53.438 217.531,53.438 217.188 C 53.438 216.844,53.332 216.562,53.203 216.561 C 53.074 216.561,52.706 215.893,52.386 215.077 C 52.065 214.261,51.046 212.022,50.120 210.101 C 49.195 208.180,48.438 206.477,48.438 206.316 C 48.438 206.156,48.030 205.197,47.531 204.185 C 47.033 203.172,46.393 201.781,46.110 201.094 C 45.826 200.406,45.461 199.600,45.297 199.301 C 45.134 199.003,45.000 198.546,45.000 198.285 C 45.000 198.025,44.859 197.813,44.688 197.813 C 44.516 197.813,44.375 197.558,44.375 197.246 C 44.375 196.935,44.094 196.098,43.750 195.386 C 43.406 194.675,43.125 193.883,43.125 193.627 C 43.125 193.371,42.995 193.082,42.837 192.984 C 42.678 192.886,42.449 192.355,42.328 191.804 C 42.207 191.253,42.002 190.586,41.872 190.323 C 41.616 189.804,41.036 188.433,40.547 187.188 C 40.378 186.758,40.125 186.177,39.985 185.898 C 39.845 185.618,39.634 184.878,39.517 184.254 C 39.400 183.629,39.179 183.041,39.027 182.947 C 38.875 182.853,38.750 182.432,38.750 182.013 C 38.750 181.593,38.609 181.250,38.438 181.250 C 38.266 181.250,38.125 180.967,38.125 180.621 C 38.125 180.275,37.998 179.747,37.844 179.449 C 37.689 179.150,37.308 178.063,36.998 177.031 C 36.688 176.000,36.322 175.023,36.186 174.859 C 36.049 174.696,35.938 174.036,35.938 173.393 C 35.938 172.750,35.797 172.137,35.625 172.031 C 35.453 171.925,35.313 171.433,35.313 170.938 C 35.313 170.442,35.172 169.950,35.000 169.844 C 34.828 169.738,34.688 169.237,34.688 168.732 C 34.688 168.226,34.547 167.813,34.375 167.813 C 34.203 167.813,34.063 167.329,34.063 166.737 C 34.063 166.146,33.922 165.575,33.750 165.469 C 32.799 164.881,33.755 162.813,34.978 162.813 C 35.334 162.813,35.625 162.672,35.625 162.500 C 35.625 162.328,36.047 162.188,36.563 162.188 C 37.078 162.188,37.500 162.047,37.500 161.875 C 37.500 161.703,37.914 161.563,38.419 161.563 C 38.925 161.563,39.418 161.434,39.515 161.276 C 39.612 161.119,40.745 160.892,42.033 160.771 C 43.321 160.650,44.375 160.440,44.375 160.304 C 44.375 160.167,45.184 159.978,46.172 159.884 C 47.160 159.789,48.953 159.570,50.156 159.395 C 51.359 159.221,53.328 158.939,54.531 158.769 C 68.372 156.806,97.939 156.880,112.656 158.913 C 116.633 159.463,117.010 159.545,116.641 159.784 C 116.426 159.923,116.250 160.627,116.250 161.349 C 116.250 162.070,116.098 163.152,115.912 163.752 C 115.400 165.408,114.997 168.529,114.802 172.344 C 114.706 174.234,114.500 175.915,114.345 176.078 C 113.950 176.494,113.978 190.224,114.375 190.469 C 114.547 190.575,114.688 191.876,114.688 193.359 C 114.688 196.080,114.973 198.240,115.799 201.770 C 116.047 202.830,116.250 204.271,116.250 204.973 C 116.250 205.675,116.391 206.250,116.563 206.250 C 116.734 206.250,116.875 206.813,116.875 207.500 C 116.875 208.188,117.016 208.750,117.188 208.750 C 117.359 208.750,117.500 209.242,117.500 209.844 C 117.500 210.445,117.641 210.938,117.813 210.938 C 117.984 210.938,118.125 211.221,118.125 211.567 C 118.125 211.913,118.257 212.440,118.419 212.739 C 118.671 213.204,119.112 214.701,119.193 215.365 C 119.207 215.479,119.324 215.678,119.453 215.807 C 119.582 215.936,119.688 216.301,119.687 216.619 C 119.687 216.936,119.828 217.475,120.000 217.817 C 120.172 218.158,120.453 218.717,120.625 219.058 C 120.797 219.400,120.937 219.892,120.937 220.152 C 120.938 220.412,121.078 220.625,121.250 220.625 C 121.422 220.625,121.563 220.880,121.563 221.192 C 121.562 221.503,121.914 222.487,122.344 223.377 C 122.773 224.268,123.125 225.138,123.125 225.311 C 123.125 225.484,123.266 225.625,123.438 225.625 C 123.609 225.625,123.751 225.871,123.752 226.172 C 123.752 226.473,124.100 227.281,124.523 227.969 C 124.947 228.656,125.297 229.465,125.303 229.766 C 125.308 230.066,125.453 230.313,125.625 230.313 C 125.797 230.313,125.938 230.523,125.938 230.781 C 125.938 231.039,126.078 231.250,126.250 231.250 C 126.422 231.250,126.563 231.531,126.563 231.875 C 126.563 232.219,126.703 232.500,126.875 232.500 C 127.047 232.500,127.188 232.624,127.187 232.775 C 127.187 233.073,129.151 236.482,129.677 237.096 C 129.855 237.304,130.000 237.556,130.000 237.656 C 130.000 237.757,130.139 238.009,130.308 238.216 C 131.735 239.966,132.187 240.598,132.188 240.839 C 132.188 240.993,132.750 241.740,133.438 242.500 C 134.125 243.260,134.688 243.977,134.688 244.095 C 134.688 244.213,135.074 244.724,135.547 245.231 C 136.020 245.738,136.688 246.546,137.031 247.026 C 138.243 248.717,145.621 255.926,149.345 259.056 C 150.177 259.756,151.565 259.907,151.558 259.297 C 151.552 258.882,150.426 257.461,148.606 255.570 C 147.998 254.938,147.500 254.285,147.500 254.118 C 147.500 253.952,147.151 253.484,146.724 253.080 C 146.297 252.675,145.946 252.194,145.943 252.012 C 145.940 251.830,145.684 251.408,145.373 251.075 C 144.459 250.092,142.500 247.073,142.500 246.645 C 142.500 246.428,142.359 246.250,142.188 246.250 C 142.016 246.250,141.875 246.066,141.875 245.840 C 141.875 245.615,141.594 245.128,141.250 244.759 C 140.906 244.391,140.625 244.016,140.625 243.928 C 140.625 243.567,138.913 240.149,138.684 240.052 C 138.549 239.995,138.438 239.678,138.438 239.349 C 138.438 239.020,138.297 238.750,138.125 238.750 C 137.953 238.750,137.813 238.469,137.813 238.125 C 137.813 237.781,137.674 237.500,137.504 237.500 C 137.334 237.500,137.105 236.938,136.995 236.250 C 136.885 235.563,136.672 235.000,136.523 235.000 C 136.373 235.000,136.250 234.719,136.250 234.375 C 136.250 234.031,136.109 233.750,135.938 233.750 C 135.766 233.750,135.625 233.493,135.625 233.179 C 135.625 232.865,135.273 231.743,134.844 230.685 C 134.414 229.628,134.063 228.338,134.063 227.819 C 134.063 227.300,133.922 226.875,133.750 226.875 C 133.578 226.875,133.438 226.453,133.438 225.938 C 133.438 225.422,133.297 225.000,133.125 225.000 C 132.953 225.000,132.813 224.586,132.813 224.081 C 132.813 223.575,132.687 223.084,132.533 222.989 C 132.379 222.894,132.175 222.288,132.078 221.643 C 131.982 220.997,131.673 219.203,131.392 217.656 C 131.111 216.109,130.812 213.930,130.728 212.813 C 130.644 211.695,130.445 210.648,130.287 210.484 C 129.907 210.092,129.907 191.563,130.287 191.563 C 130.445 191.563,130.642 190.613,130.726 189.453 C 130.810 188.293,131.108 186.008,131.387 184.375 C 131.666 182.742,131.975 180.844,132.073 180.156 C 132.171 179.469,132.378 178.773,132.532 178.609 C 132.686 178.446,132.813 177.848,132.813 177.281 C 132.813 176.714,132.953 176.250,133.125 176.250 C 133.297 176.250,133.438 175.766,133.438 175.175 C 133.438 174.583,133.578 174.012,133.750 173.906 C 133.922 173.800,134.063 173.252,134.063 172.688 C 134.063 171.811,134.716 169.295,135.944 165.447 C 136.112 164.919,136.250 164.251,136.250 163.962 C 136.250 163.674,136.399 163.438,136.581 163.438 C 136.763 163.438,136.825 163.297,136.719 163.125 C 136.609 162.948,136.872 162.813,137.325 162.813 C 137.765 162.813,138.125 162.933,138.125 163.080 C 138.125 163.228,138.975 163.437,140.014 163.546 C 141.054 163.655,142.169 163.886,142.494 164.059 C 142.818 164.233,143.436 164.375,143.867 164.375 C 144.298 164.375,144.738 164.516,144.844 164.688 C 144.950 164.859,145.512 165.000,146.094 165.000 C 146.675 165.000,147.238 165.141,147.344 165.313 C 147.450 165.484,147.880 165.625,148.300 165.625 C 148.719 165.625,149.063 165.766,149.063 165.938 C 149.063 166.109,149.484 166.250,150.000 166.250 C 150.516 166.250,150.938 166.391,150.938 166.563 C 150.938 166.734,151.294 166.875,151.729 166.875 C 152.164 166.875,153.025 167.086,153.642 167.344 C 154.259 167.602,155.028 167.812,155.351 167.812 C 155.673 167.813,155.938 167.953,155.938 168.125 C 155.938 168.297,156.289 168.438,156.719 168.438 C 157.148 168.438,157.500 168.578,157.500 168.750 C 157.500 168.922,157.781 169.063,158.125 169.063 C 158.469 169.063,158.750 169.203,158.750 169.375 C 158.750 169.547,159.052 169.688,159.422 169.688 C 160.145 169.688,163.526 171.223,163.698 171.629 C 163.755 171.764,164.130 171.875,164.531 171.875 C 164.932 171.875,165.307 171.980,165.365 172.109 C 165.422 172.238,166.277 172.754,167.266 173.255 C 168.254 173.756,169.063 174.284,169.063 174.427 C 169.063 174.570,169.273 174.688,169.531 174.688 C 169.789 174.688,170.000 174.828,170.000 175.000 C 170.000 175.172,170.211 175.313,170.469 175.313 C 170.727 175.313,170.938 175.438,170.938 175.591 C 170.938 175.744,171.265 175.952,171.664 176.052 C 172.064 176.153,172.836 176.660,173.380 177.180 C 173.924 177.700,174.499 178.125,174.659 178.125 C 174.818 178.125,174.995 178.230,175.052 178.359 C 175.109 178.488,175.719 179.014,176.406 179.528 C 177.936 180.672,180.593 183.112,182.365 185.000 C 185.399 188.234,186.563 189.540,186.563 189.716 C 186.563 189.819,186.920 190.311,187.356 190.811 C 187.792 191.310,188.455 192.211,188.829 192.813 C 189.202 193.414,189.654 194.066,189.832 194.262 C 190.826 195.353,191.250 195.995,191.250 196.410 C 191.250 196.666,191.391 196.875,191.563 196.875 C 191.734 196.875,191.875 197.069,191.875 197.305 C 191.875 197.542,192.086 197.911,192.344 198.125 C 192.602 198.339,192.813 198.778,192.813 199.101 C 192.813 199.423,192.927 199.688,193.067 199.688 C 193.206 199.687,193.514 200.180,193.750 200.781 C 193.986 201.383,194.294 201.875,194.433 201.875 C 194.573 201.875,194.688 202.156,194.688 202.500 C 194.688 202.844,194.822 203.125,194.986 203.125 C 195.150 203.125,195.377 203.619,195.490 204.222 C 195.603 204.826,195.821 205.396,195.973 205.491 C 196.125 205.585,196.250 205.935,196.250 206.268 C 196.250 206.602,196.391 206.875,196.563 206.875 C 196.734 206.875,196.875 207.158,196.875 207.504 C 196.875 207.850,196.999 208.378,197.151 208.676 C 198.139 210.618,198.750 212.967,198.750 214.822 C 198.750 216.579,199.180 217.500,200.000 217.500 C 200.820 217.500,201.250 216.579,201.250 214.822 C 201.250 212.967,201.861 210.618,202.849 208.676 C 203.001 208.378,203.125 207.850,203.125 207.504 C 203.125 207.158,203.266 206.875,203.438 206.875 C 203.609 206.875,203.750 206.602,203.750 206.268 C 203.750 205.935,203.875 205.585,204.027 205.491 C 204.179 205.396,204.397 204.826,204.510 204.222 C 204.623 203.619,204.850 203.125,205.014 203.125 C 205.178 203.125,205.313 202.844,205.313 202.500 C 205.313 202.156,205.427 201.875,205.567 201.875 C 205.706 201.875,206.014 201.383,206.250 200.781 C 206.486 200.180,206.794 199.688,206.933 199.688 C 207.073 199.688,207.188 199.423,207.188 199.101 C 207.188 198.778,207.398 198.339,207.656 198.125 C 207.914 197.911,208.125 197.542,208.125 197.305 C 208.125 197.069,208.266 196.875,208.438 196.875 C 208.609 196.875,208.750 196.666,208.750 196.410 C 208.750 195.995,209.174 195.353,210.168 194.262 C 210.346 194.066,210.798 193.414,211.171 192.813 C 211.545 192.211,212.208 191.310,212.644 190.811 C 213.080 190.311,213.438 189.819,213.438 189.716 C 213.438 189.540,214.601 188.234,217.635 185.000 C 219.407 183.112,222.064 180.672,223.594 179.528 C 224.281 179.014,224.891 178.488,224.948 178.359 C 225.005 178.230,225.182 178.125,225.341 178.125 C 225.501 178.125,226.076 177.700,226.620 177.180 C 227.164 176.660,227.936 176.153,228.336 176.052 C 228.735 175.952,229.063 175.744,229.063 175.591 C 229.063 175.438,229.273 175.313,229.531 175.313 C 229.789 175.313,230.000 175.172,230.000 175.000 C 230.000 174.828,230.211 174.688,230.469 174.688 C 230.727 174.688,230.938 174.570,230.938 174.427 C 230.938 174.284,231.746 173.756,232.734 173.255 C 233.723 172.754,234.578 172.238,234.635 172.109 C 234.693 171.980,235.068 171.875,235.469 171.875 C 235.870 171.875,236.245 171.764,236.302 171.629 C 236.474 171.223,239.855 169.687,240.578 169.688 C 240.948 169.688,241.250 169.547,241.250 169.375 C 241.250 169.203,241.531 169.063,241.875 169.063 C 242.219 169.063,242.500 168.922,242.500 168.750 C 242.500 168.578,242.852 168.438,243.281 168.438 C 243.711 168.438,244.063 168.297,244.063 168.125 C 244.063 167.953,244.327 167.813,244.649 167.813 C 244.972 167.812,245.741 167.602,246.358 167.344 C 246.975 167.086,247.836 166.875,248.271 166.875 C 248.706 166.875,249.063 166.734,249.063 166.563 C 249.063 166.391,249.484 166.250,250.000 166.250 C 250.516 166.250,250.938 166.109,250.938 165.938 C 250.938 165.766,251.281 165.625,251.700 165.625 C 252.120 165.625,252.550 165.484,252.656 165.313 C 252.762 165.141,253.325 165.000,253.906 165.000 C 254.488 165.000,255.050 164.859,255.156 164.688 C 255.262 164.516,255.702 164.375,256.133 164.375 C 256.564 164.375,257.182 164.233,257.506 164.059 C 257.831 163.886,258.946 163.655,259.986 163.546 C 261.025 163.437,261.875 163.228,261.875 163.080 C 261.875 162.933,262.235 162.813,262.675 162.813 C 263.128 162.813,263.391 162.948,263.281 163.125 C 263.175 163.297,263.237 163.438,263.419 163.438 C 263.601 163.438,263.750 163.674,263.750 163.962 C 263.750 164.251,263.888 164.919,264.056 165.447 C 265.284 169.295,265.938 171.811,265.938 172.688 C 265.938 173.252,266.078 173.800,266.250 173.906 C 266.422 174.012,266.563 174.583,266.563 175.175 C 266.563 175.766,266.703 176.250,266.875 176.250 C 267.047 176.250,267.188 176.714,267.188 177.281 C 267.188 177.848,267.314 178.446,267.468 178.609 C 267.622 178.773,267.829 179.469,267.927 180.156 C 268.025 180.844,268.334 182.742,268.613 184.375 C 268.892 186.008,269.190 188.293,269.274 189.453 C 269.358 190.613,269.558 191.563,269.720 191.563 C 270.092 191.562,270.072 210.004,269.700 210.457 C 269.553 210.635,269.362 211.695,269.276 212.813 C 269.189 213.930,268.889 216.109,268.608 217.656 C 268.327 219.203,268.018 220.997,267.922 221.643 C 267.825 222.288,267.621 222.894,267.467 222.989 C 267.313 223.084,267.188 223.575,267.188 224.081 C 267.188 224.586,267.047 225.000,266.875 225.000 C 266.703 225.000,266.563 225.422,266.563 225.938 C 266.563 226.453,266.422 226.875,266.250 226.875 C 266.078 226.875,265.938 227.300,265.938 227.819 C 265.937 228.338,265.586 229.628,265.156 230.685 C 264.727 231.743,264.375 232.865,264.375 233.179 C 264.375 233.493,264.234 233.750,264.063 233.750 C 263.891 233.750,263.750 234.031,263.750 234.375 C 263.750 234.719,263.627 235.000,263.477 235.000 C 263.328 235.000,263.115 235.563,263.005 236.250 C 262.895 236.938,262.666 237.500,262.496 237.500 C 262.326 237.500,262.188 237.781,262.188 238.125 C 262.188 238.469,262.047 238.750,261.875 238.750 C 261.703 238.750,261.563 239.020,261.563 239.349 C 261.563 239.678,261.451 239.995,261.316 240.052 C 261.087 240.149,259.375 243.567,259.375 243.928 C 259.375 244.016,259.094 244.391,258.750 244.759 C 258.406 245.128,258.125 245.615,258.125 245.840 C 258.125 246.066,257.984 246.250,257.813 246.250 C 257.641 246.250,257.500 246.428,257.500 246.645 C 257.500 247.073,255.541 250.092,254.627 251.075 C 254.316 251.408,254.060 251.830,254.057 252.012 C 254.054 252.194,253.703 252.675,253.276 253.080 C 252.849 253.484,252.500 253.952,252.500 254.118 C 252.500 254.285,252.002 254.938,251.394 255.570 C 246.509 260.644,248.053 261.534,253.386 256.719 C 255.729 254.603,262.308 247.948,262.969 247.026 C 263.313 246.546,263.980 245.738,264.453 245.231 C 264.926 244.724,265.313 244.213,265.313 244.095 C 265.312 243.977,265.875 243.260,266.563 242.500 C 267.250 241.740,267.813 240.993,267.813 240.839 C 267.813 240.598,268.265 239.966,269.692 238.216 C 269.861 238.009,270.000 237.757,270.000 237.656 C 270.000 237.556,270.145 237.304,270.323 237.096 C 270.849 236.482,272.813 233.073,272.813 232.775 C 272.813 232.624,272.953 232.500,273.125 232.500 C 273.297 232.500,273.438 232.219,273.438 231.875 C 273.438 231.531,273.578 231.250,273.750 231.250 C 273.922 231.250,274.063 231.039,274.063 230.781 C 274.063 230.523,274.203 230.313,274.375 230.313 C 274.547 230.313,274.692 230.066,274.697 229.766 C 274.703 229.465,275.053 228.656,275.477 227.969 C 275.900 227.281,276.248 226.473,276.248 226.172 C 276.249 225.871,276.391 225.625,276.563 225.625 C 276.734 225.625,276.875 225.488,276.875 225.321 C 276.875 225.154,277.241 224.205,277.689 223.212 C 278.509 221.392,278.890 220.496,279.453 219.063 C 279.622 218.633,279.885 218.037,280.036 217.739 C 280.188 217.440,280.313 216.936,280.313 216.619 C 280.313 216.301,280.418 215.936,280.547 215.807 C 280.676 215.678,280.793 215.479,280.807 215.365 C 280.888 214.701,281.329 213.204,281.581 212.739 C 281.743 212.440,281.875 211.913,281.875 211.567 C 281.875 211.221,282.016 210.938,282.188 210.938 C 282.359 210.938,282.500 210.445,282.500 209.844 C 282.500 209.242,282.641 208.750,282.813 208.750 C 282.984 208.750,283.125 208.188,283.125 207.500 C 283.125 206.813,283.266 206.250,283.438 206.250 C 283.609 206.250,283.750 205.675,283.750 204.973 C 283.750 204.271,283.953 202.830,284.201 201.770 C 285.027 198.240,285.312 196.080,285.313 193.359 C 285.313 191.876,285.453 190.575,285.625 190.469 C 286.022 190.224,286.050 176.494,285.655 176.078 C 285.500 175.915,285.294 174.234,285.198 172.344 C 285.003 168.529,284.600 165.408,284.088 163.752 C 283.902 163.152,283.750 162.070,283.750 161.349 C 283.750 160.627,283.574 159.923,283.359 159.784 C 282.990 159.545,283.367 159.463,287.344 158.913 C 302.061 156.880,331.628 156.806,345.469 158.769 C 346.672 158.939,348.641 159.221,349.844 159.395 C 351.047 159.570,352.840 159.789,353.828 159.884 C 354.816 159.978,355.625 160.167,355.625 160.304 C 355.625 160.440,356.679 160.650,357.967 160.771 C 359.255 160.892,360.388 161.119,360.485 161.276 C 360.582 161.434,361.075 161.563,361.581 161.563 C 362.086 161.563,362.500 161.703,362.500 161.875 C 362.500 162.047,362.922 162.188,363.438 162.188 C 363.953 162.188,364.375 162.328,364.375 162.500 C 364.375 162.672,364.666 162.813,365.022 162.813 C 366.245 162.813,367.201 164.881,366.250 165.469 C 366.078 165.575,365.938 166.146,365.938 166.737 C 365.938 167.329,365.797 167.813,365.625 167.813 C 365.453 167.813,365.313 168.226,365.313 168.732 C 365.313 169.237,365.172 169.738,365.000 169.844 C 364.828 169.950,364.688 170.442,364.688 170.938 C 364.688 171.433,364.547 171.925,364.375 172.031 C 364.203 172.137,364.063 172.750,364.063 173.393 C 364.062 174.036,363.951 174.696,363.814 174.859 C 363.678 175.023,363.312 176.000,363.002 177.031 C 362.692 178.063,362.311 179.150,362.156 179.449 C 362.002 179.747,361.875 180.275,361.875 180.621 C 361.875 180.967,361.734 181.250,361.563 181.250 C 361.391 181.250,361.250 181.593,361.250 182.013 C 361.250 182.432,361.125 182.853,360.973 182.947 C 360.821 183.041,360.600 183.629,360.483 184.254 C 360.366 184.878,360.155 185.618,360.015 185.898 C 359.875 186.177,359.603 186.793,359.411 187.266 C 359.220 187.738,358.905 188.512,358.714 188.984 C 358.522 189.457,358.258 190.059,358.128 190.323 C 357.998 190.586,357.793 191.253,357.672 191.804 C 357.551 192.355,357.322 192.886,357.163 192.984 C 357.005 193.082,356.875 193.371,356.875 193.627 C 356.875 193.883,356.594 194.675,356.250 195.386 C 355.906 196.098,355.625 196.935,355.625 197.246 C 355.625 197.558,355.484 197.813,355.313 197.813 C 355.141 197.813,355.000 198.025,355.000 198.285 C 355.000 198.546,354.866 199.003,354.703 199.301 C 354.539 199.600,354.174 200.406,353.890 201.094 C 353.607 201.781,352.967 203.172,352.469 204.185 C 351.970 205.197,351.563 206.156,351.563 206.316 C 351.563 206.477,350.805 208.180,349.880 210.101 C 348.954 212.022,347.935 214.261,347.614 215.077 C 347.294 215.893,346.926 216.561,346.797 216.561 C 346.668 216.562,346.563 216.844,346.563 217.188 C 346.563 217.531,346.422 217.813,346.250 217.813 C 346.078 217.813,345.937 217.988,345.936 218.203 C 345.933 218.844,343.201 224.048,342.656 224.448 C 342.484 224.575,342.458 224.680,342.598 224.683 C 342.819 224.687,341.677 227.073,341.250 227.500 C 341.164 227.586,340.744 228.359,340.317 229.219 C 339.890 230.078,339.063 231.625,338.478 232.656 C 337.893 233.688,336.918 235.445,336.311 236.563 C 335.704 237.680,335.125 238.664,335.025 238.750 C 334.925 238.836,334.632 239.328,334.375 239.844 C 334.118 240.359,333.826 240.852,333.726 240.938 C 333.626 241.023,333.147 241.832,332.660 242.734 C 332.174 243.637,331.657 244.375,331.513 244.375 C 331.368 244.375,331.250 244.592,331.250 244.857 C 331.250 245.122,331.004 245.605,330.703 245.929 C 330.402 246.254,329.875 247.057,329.532 247.713 C 329.189 248.369,328.727 249.097,328.506 249.329 C 328.285 249.562,327.843 250.265,327.523 250.892 C 327.203 251.519,326.645 252.299,326.283 252.627 C 325.921 252.954,325.625 253.411,325.625 253.642 C 325.625 253.873,325.507 254.063,325.362 254.063 C 325.217 254.063,324.833 254.555,324.509 255.156 C 324.185 255.758,323.821 256.250,323.700 256.250 C 323.579 256.250,323.396 256.515,323.293 256.838 C 323.190 257.161,322.856 257.715,322.549 258.068 C 322.243 258.421,321.720 259.086,321.387 259.546 C 321.054 260.006,320.605 260.567,320.391 260.794 C 320.176 261.020,320.000 261.292,320.000 261.398 C 320.000 261.504,319.684 261.918,319.297 262.319 C 318.910 262.719,318.313 263.437,317.969 263.914 C 317.625 264.391,316.748 265.428,316.019 266.219 C 315.290 267.009,314.693 267.766,314.691 267.901 C 314.682 268.530,303.449 279.215,302.167 279.813 C 301.835 279.969,301.563 280.215,301.563 280.360 C 301.563 280.506,301.363 280.625,301.120 280.625 C 300.876 280.625,300.630 280.742,300.573 280.884 C 300.384 281.354,297.051 283.437,296.489 283.438 C 296.185 283.438,295.938 283.578,295.938 283.750 C 295.938 283.922,295.656 284.063,295.313 284.063 C 294.969 284.063,294.688 284.203,294.688 284.375 C 294.688 284.547,294.475 284.688,294.215 284.688 C 293.954 284.688,293.427 284.850,293.043 285.049 C 291.609 285.790,291.308 285.890,289.886 286.104 C 289.085 286.224,288.353 286.447,288.259 286.599 C 288.165 286.751,287.616 286.875,287.039 286.875 C 286.462 286.875,285.938 287.029,285.876 287.217 C 285.711 287.710,273.669 287.727,273.505 287.234 C 273.439 287.037,272.975 286.875,272.474 286.875 C 271.973 286.875,271.563 286.763,271.563 286.625 C 271.563 286.488,271.066 286.196,270.459 285.977 C 269.209 285.525,267.813 284.260,267.813 283.580 C 267.813 283.330,267.672 283.125,267.500 283.125 C 267.328 283.125,267.188 282.711,267.188 282.206 C 267.188 281.700,267.034 281.192,266.846 281.076 C 266.644 280.951,266.575 280.399,266.677 279.729 C 267.096 276.992,267.274 276.234,267.535 276.072 C 267.687 275.978,267.812 275.615,267.812 275.265 C 267.812 274.159,274.165 267.188,275.173 267.188 C 275.265 267.188,275.661 266.871,276.052 266.484 C 276.443 266.098,277.155 265.500,277.635 265.156 C 278.114 264.813,278.692 264.355,278.919 264.141 C 279.145 263.926,279.481 263.750,279.665 263.750 C 279.849 263.750,280.000 263.609,280.000 263.438 C 280.000 263.266,280.147 263.125,280.326 263.125 C 280.505 263.125,280.917 262.879,281.242 262.578 C 281.567 262.277,282.370 261.751,283.026 261.409 C 283.682 261.067,284.289 260.704,284.375 260.602 C 284.749 260.158,287.995 258.125,288.329 258.125 C 288.532 258.125,288.745 258.011,288.802 257.872 C 288.972 257.460,291.664 255.715,293.070 255.106 C 293.788 254.795,294.375 254.433,294.375 254.301 C 294.375 254.170,294.586 254.063,294.844 254.063 C 295.102 254.063,295.313 253.938,295.313 253.786 C 295.313 253.635,295.559 253.432,295.859 253.335 C 296.160 253.239,297.250 252.655,298.281 252.037 C 299.313 251.419,300.402 250.832,300.703 250.733 C 301.004 250.633,301.250 250.459,301.250 250.346 C 301.250 250.233,301.881 249.862,302.653 249.523 C 303.425 249.184,304.058 248.801,304.060 248.672 C 304.061 248.543,304.344 248.438,304.688 248.438 C 305.031 248.438,305.314 248.332,305.316 248.203 C 305.319 248.074,306.229 247.547,307.340 247.031 C 308.450 246.516,309.363 245.988,309.367 245.859 C 309.371 245.730,309.645 245.625,309.974 245.625 C 310.303 245.625,310.620 245.520,310.677 245.391 C 310.734 245.262,311.906 244.594,313.281 243.906 C 314.656 243.219,315.828 242.551,315.885 242.422 C 315.943 242.293,316.259 242.188,316.589 242.188 C 316.918 242.188,317.188 242.047,317.188 241.875 C 317.188 241.703,317.469 241.563,317.813 241.563 C 318.156 241.563,318.438 241.439,318.438 241.289 C 318.438 241.139,318.861 240.931,319.378 240.827 C 320.436 240.616,321.159 239.439,320.786 238.536 C 320.630 238.157,320.504 238.098,320.406 238.359 C 320.320 238.590,319.702 238.750,318.899 238.750 C 318.150 238.750,317.450 238.891,317.344 239.062 C 317.238 239.234,316.534 239.375,315.781 239.375 C 315.028 239.375,314.334 239.501,314.238 239.656 C 314.143 239.810,313.079 240.035,311.875 240.156 C 310.671 240.277,309.607 240.502,309.512 240.657 C 309.416 240.811,308.925 240.938,308.419 240.938 C 307.914 240.938,307.500 241.078,307.500 241.250 C 307.500 241.422,307.008 241.563,306.406 241.563 C 305.805 241.563,305.313 241.703,305.313 241.875 C 305.313 242.047,304.959 242.188,304.527 242.188 C 304.095 242.187,303.497 242.324,303.199 242.490 C 302.294 242.995,299.714 243.750,298.895 243.750 C 298.472 243.750,298.125 243.891,298.125 244.063 C 298.125 244.234,297.773 244.375,297.344 244.375 C 296.914 244.375,296.563 244.516,296.563 244.688 C 296.563 244.859,296.286 245.000,295.947 245.000 C 295.608 245.000,294.846 245.273,294.252 245.606 C 293.658 245.940,292.669 246.307,292.055 246.422 C 291.440 246.538,290.938 246.757,290.938 246.910 C 290.938 247.063,290.656 247.188,290.313 247.188 C 289.969 247.188,289.688 247.328,289.688 247.500 C 289.688 247.672,289.490 247.813,289.248 247.813 C 289.007 247.813,288.268 248.083,287.608 248.414 C 285.329 249.556,284.278 250.000,283.858 250.000 C 283.627 250.000,283.438 250.141,283.438 250.313 C 283.438 250.484,283.227 250.625,282.969 250.625 C 282.711 250.625,282.500 250.766,282.500 250.938 C 282.500 251.109,282.219 251.250,281.875 251.250 C 281.531 251.250,281.250 251.360,281.250 251.494 C 281.250 251.628,280.547 252.010,279.688 252.344 C 278.828 252.677,278.125 253.060,278.125 253.194 C 278.125 253.328,277.926 253.438,277.682 253.438 C 277.439 253.437,277.193 253.543,277.135 253.672 C 277.004 253.968,275.423 254.932,274.297 255.403 C 273.824 255.600,273.438 255.872,273.438 256.006 C 273.438 256.140,273.227 256.250,272.969 256.250 C 272.711 256.250,272.500 256.362,272.500 256.498 C 272.500 256.634,271.800 257.162,270.944 257.670 C 270.088 258.178,269.385 258.699,269.381 258.828 C 269.378 258.957,269.236 259.063,269.066 259.063 C 268.788 259.063,268.071 259.573,267.075 260.480 C 266.879 260.658,266.163 261.221,265.484 261.730 C 263.286 263.378,258.103 268.356,256.654 270.210 C 256.274 270.696,255.536 271.586,255.014 272.188 C 254.491 272.789,254.064 273.365,254.063 273.467 C 254.063 273.569,253.711 274.061,253.282 274.561 C 252.852 275.060,252.501 275.645,252.500 275.859 C 252.500 276.074,252.359 276.250,252.188 276.250 C 252.016 276.250,251.875 276.461,251.875 276.719 C 251.875 276.977,251.763 277.188,251.627 277.188 C 251.490 277.188,250.848 278.348,250.199 279.766 C 249.551 281.184,248.889 282.588,248.729 282.886 C 248.569 283.185,248.437 283.704,248.437 284.040 C 248.437 284.376,248.297 284.738,248.125 284.844 C 247.711 285.099,247.711 290.938,248.125 290.938 C 248.297 290.938,248.438 291.165,248.438 291.443 C 248.438 292.167,250.416 294.733,251.542 295.469 C 252.068 295.813,252.499 296.199,252.499 296.328 C 252.500 296.457,252.711 296.563,252.969 296.563 C 253.227 296.563,253.438 296.703,253.438 296.875 C 253.438 297.047,253.719 297.188,254.063 297.188 C 254.406 297.188,254.689 297.293,254.690 297.422 C 254.692 297.551,255.571 297.914,256.643 298.228 C 257.716 298.543,258.917 298.930,259.312 299.088 C 259.706 299.246,260.417 299.375,260.890 299.375 C 261.363 299.375,261.926 299.551,262.141 299.766 C 262.438 300.063,265.098 300.156,273.281 300.156 C 281.465 300.156,284.125 300.063,284.422 299.766 C 284.637 299.551,285.339 299.375,285.982 299.375 C 286.625 299.375,287.228 299.249,287.323 299.096 C 287.418 298.942,288.024 298.737,288.670 298.641 C 290.982 298.296,293.438 297.674,293.438 297.433 C 293.438 297.298,293.789 297.188,294.219 297.188 C 294.648 297.188,295.000 297.047,295.000 296.875 C 295.000 296.703,295.283 296.563,295.629 296.562 C 296.231 296.562,296.513 296.460,298.008 295.695 C 298.374 295.508,299.183 295.260,299.805 295.143 C 300.428 295.026,300.938 294.805,300.938 294.653 C 300.938 294.500,301.219 294.375,301.563 294.375 C 301.906 294.375,302.188 294.234,302.188 294.063 C 302.188 293.891,302.378 293.750,302.612 293.750 C 302.845 293.750,303.980 293.258,305.135 292.656 C 306.289 292.055,307.434 291.562,307.679 291.563 C 307.924 291.563,308.125 291.422,308.125 291.250 C 308.125 291.078,308.324 290.938,308.568 290.937 C 308.811 290.937,309.057 290.832,309.115 290.703 C 309.246 290.407,310.827 289.443,311.953 288.972 C 312.426 288.775,312.813 288.503,312.813 288.369 C 312.813 288.235,313.023 288.125,313.281 288.125 C 313.539 288.125,313.750 287.984,313.750 287.813 C 313.750 287.641,313.961 287.500,314.219 287.500 C 314.477 287.500,314.689 287.395,314.691 287.266 C 314.693 287.137,315.256 286.763,315.941 286.434 C 316.627 286.106,317.188 285.719,317.188 285.575 C 317.188 285.431,317.387 285.313,317.630 285.313 C 317.874 285.313,318.120 285.205,318.177 285.073 C 318.234 284.941,319.055 284.275,320.000 283.594 C 320.945 282.912,321.766 282.247,321.823 282.115 C 321.880 281.983,322.064 281.875,322.230 281.875 C 322.397 281.875,322.983 281.454,323.533 280.939 C 324.082 280.424,324.630 280.002,324.751 280.001 C 324.873 280.001,325.295 279.684,325.689 279.297 C 326.084 278.910,326.899 278.196,327.501 277.711 C 330.887 274.975,340.060 266.042,343.281 262.343 C 343.969 261.554,344.883 260.505,345.313 260.013 C 345.742 259.521,346.516 258.605,347.031 257.977 C 347.547 257.349,348.112 256.669,348.288 256.465 C 348.463 256.261,349.166 255.391,349.850 254.531 C 350.534 253.672,351.199 252.922,351.328 252.865 C 351.457 252.807,351.563 252.625,351.563 252.460 C 351.563 252.294,351.879 251.841,352.266 251.453 C 352.652 251.064,353.320 250.228,353.750 249.594 C 354.180 248.960,354.637 248.441,354.766 248.440 C 354.895 248.438,355.000 248.262,355.001 248.047 C 355.001 247.832,355.423 247.164,355.938 246.563 C 356.452 245.961,356.874 245.373,356.874 245.257 C 356.875 245.140,357.076 244.844,357.321 244.599 C 357.566 244.354,358.438 243.113,359.259 241.842 C 360.080 240.571,361.005 239.259,361.313 238.925 C 361.622 238.592,361.875 238.200,361.875 238.053 C 361.875 237.906,362.121 237.520,362.422 237.196 C 362.723 236.871,363.250 236.068,363.594 235.412 C 363.938 234.756,364.443 233.969,364.717 233.665 C 364.992 233.360,365.619 232.341,366.111 231.399 C 366.604 230.458,367.118 229.687,367.253 229.687 C 367.389 229.688,367.500 229.406,367.500 229.063 C 367.500 228.719,367.614 228.438,367.754 228.438 C 367.991 228.437,369.622 225.647,372.138 220.938 C 372.734 219.820,373.457 218.555,373.743 218.125 C 374.030 217.695,374.508 216.781,374.807 216.094 C 375.105 215.406,375.643 214.281,376.001 213.594 C 378.411 208.966,379.375 206.899,379.375 206.358 C 379.375 206.127,379.516 205.938,379.688 205.938 C 379.859 205.938,380.000 205.656,380.000 205.313 C 380.000 204.969,380.141 204.688,380.313 204.688 C 380.484 204.688,380.625 204.406,380.625 204.063 C 380.625 203.719,380.766 203.438,380.938 203.438 C 381.109 203.438,381.250 203.148,381.250 202.795 C 381.250 202.441,381.602 201.522,382.031 200.752 C 382.461 199.983,382.813 199.077,382.813 198.739 C 382.813 198.401,382.953 198.125,383.125 198.125 C 383.297 198.125,383.438 197.918,383.438 197.666 C 383.438 197.413,383.710 196.721,384.044 196.127 C 384.377 195.533,384.745 194.544,384.860 193.930 C 384.975 193.315,385.195 192.812,385.347 192.813 C 385.500 192.813,385.625 192.469,385.625 192.050 C 385.625 191.630,385.766 191.200,385.938 191.094 C 386.109 190.988,386.250 190.628,386.250 190.294 C 386.250 189.960,386.391 189.688,386.563 189.688 C 386.734 189.688,386.875 189.364,386.875 188.969 C 386.875 188.573,386.997 188.116,387.145 187.953 C 387.294 187.790,387.585 186.953,387.793 186.094 C 388.147 184.632,388.734 183.067,389.401 181.801 C 389.559 181.503,389.688 180.835,389.688 180.317 C 389.688 179.799,389.813 179.375,389.966 179.375 C 390.119 179.375,390.323 178.918,390.418 178.359 C 390.760 176.366,391.420 173.789,391.645 173.563 C 391.772 173.437,391.875 173.014,391.875 172.623 C 391.875 172.232,392.016 171.825,392.188 171.719 C 392.359 171.613,392.500 171.042,392.500 170.450 C 392.500 169.859,392.641 169.375,392.813 169.375 C 392.984 169.375,393.125 168.906,393.125 168.333 C 393.125 167.760,393.230 167.187,393.359 167.059 C 393.578 166.842,394.175 163.542,394.579 160.313 C 394.675 159.539,394.911 158.714,395.102 158.479 C 395.860 157.547,395.800 144.063,395.037 144.063 C 394.673 144.063,394.375 143.922,394.375 143.750 C 394.375 143.578,394.023 143.438,393.594 143.438 C 393.164 143.438,392.813 143.315,392.813 143.165 C 392.813 143.016,392.115 142.801,391.263 142.687 C 390.411 142.574,389.629 142.345,389.526 142.178 C 389.423 142.012,389.003 141.875,388.594 141.875 C 388.184 141.875,387.762 141.734,387.656 141.563 C 387.550 141.391,387.050 141.250,386.544 141.250 C 386.039 141.250,385.625 141.109,385.625 140.938 C 385.625 140.766,384.969 140.625,384.167 140.625 C 383.365 140.625,382.810 140.523,382.935 140.398 C 383.147 140.186,381.471 139.810,377.031 139.074 C 376.000 138.903,374.523 138.608,373.750 138.419 C 372.977 138.229,371.781 138.001,371.094 137.911 C 370.406 137.822,369.710 137.622,369.547 137.468 C 369.384 137.314,368.153 137.188,366.813 137.188 C 365.472 137.188,364.375 137.065,364.375 136.916 C 364.375 136.767,362.160 136.481,359.453 136.281 C 356.746 136.081,352.914 135.771,350.938 135.593 C 348.961 135.414,342.422 135.205,336.406 135.127 L 325.469 134.986 325.573 132.600 C 325.631 131.288,325.532 129.920,325.354 129.560 C 325.176 129.200,324.951 126.727,324.855 124.063 C 324.759 121.398,324.544 117.883,324.377 116.250 C 324.209 114.617,323.894 111.077,323.677 108.383 C 323.459 105.690,323.176 103.381,323.047 103.253 C 322.918 103.125,322.813 102.229,322.813 101.260 C 322.813 100.292,322.684 99.366,322.527 99.203 C 322.371 99.040,322.166 98.133,322.073 97.188 C 321.785 94.273,321.538 92.683,321.272 92.031 C 320.912 91.150,319.997 86.266,319.999 85.234 C 319.999 84.762,319.859 84.375,319.688 84.375 C 319.516 84.375,319.375 83.891,319.375 83.300 C 319.375 82.708,319.234 82.137,319.063 82.031 C 318.891 81.925,318.750 81.433,318.750 80.938 C 318.750 80.442,318.609 79.950,318.438 79.844 C 318.266 79.738,318.125 79.245,318.125 78.750 C 318.125 78.255,317.998 77.771,317.842 77.674 C 317.686 77.578,317.462 76.796,317.344 75.937 C 317.226 75.078,317.001 74.375,316.846 74.375 C 316.690 74.375,316.563 73.953,316.563 73.438 C 316.563 72.922,316.422 72.500,316.250 72.500 C 316.078 72.500,315.938 72.157,315.938 71.737 C 315.938 71.318,315.815 70.899,315.665 70.806 C 315.516 70.714,315.306 70.201,315.199 69.666 C 315.092 69.131,314.720 68.052,314.373 67.267 L 313.742 65.840 308.365 66.052 C 305.407 66.168,302.849 66.401,302.681 66.569 C 302.513 66.737,301.630 66.875,300.719 66.875 C 299.808 66.875,299.063 67.016,299.063 67.188 C 299.063 67.359,298.430 67.500,297.656 67.500 C 296.883 67.500,296.250 67.641,296.250 67.813 C 296.250 67.984,295.711 68.125,295.052 68.125 C 294.393 68.125,293.749 68.230,293.620 68.359 C 293.396 68.583,290.716 69.150,287.891 69.571 C 287.160 69.680,286.563 69.891,286.563 70.041 C 286.563 70.190,286.141 70.313,285.625 70.313 C 285.109 70.313,284.688 70.453,284.688 70.625 C 284.688 70.797,284.264 70.937,283.746 70.937 C 283.228 70.937,282.560 71.061,282.261 71.212 C 281.273 71.713,278.605 72.503,277.909 72.502 C 277.532 72.501,277.137 72.641,277.031 72.813 C 276.925 72.984,276.425 73.125,275.919 73.125 C 275.414 73.125,275.000 73.266,275.000 73.438 C 275.000 73.609,274.648 73.750,274.219 73.750 C 273.789 73.750,273.438 73.891,273.438 74.063 C 273.438 74.234,273.086 74.375,272.656 74.375 C 272.227 74.375,271.875 74.516,271.875 74.688 C 271.875 74.859,271.559 75.001,271.172 75.002 C 270.785 75.003,270.066 75.214,269.574 75.471 C 269.081 75.727,268.413 75.937,268.089 75.938 C 267.765 75.938,267.500 76.078,267.500 76.250 C 267.500 76.422,267.148 76.563,266.719 76.563 C 266.289 76.563,265.938 76.703,265.938 76.875 C 265.938 77.047,265.586 77.188,265.156 77.188 C 264.727 77.188,264.375 77.293,264.375 77.422 C 264.375 77.551,263.461 77.932,262.344 78.269 C 261.227 78.607,260.313 78.993,260.313 79.129 C 260.313 79.264,260.031 79.375,259.688 79.375 C 259.344 79.375,259.063 79.516,259.063 79.688 C 259.063 79.859,258.805 80.000,258.490 80.000 C 258.176 80.000,257.227 80.351,256.381 80.780 C 255.536 81.209,254.598 81.560,254.297 81.561 C 253.996 81.562,253.750 81.703,253.750 81.875 C 253.750 82.047,253.609 82.188,253.438 82.188 C 253.266 82.188,253.125 81.906,253.125 81.563 C 253.125 81.219,252.984 80.938,252.813 80.938 C 252.641 80.938,252.500 80.727,252.500 80.469 C 252.500 80.211,252.386 80.000,252.246 80.000 C 252.106 80.000,251.799 79.508,251.563 78.906 C 251.326 78.305,251.035 77.812,250.916 77.813 C 250.796 77.813,250.619 77.566,250.522 77.266 C 250.425 76.965,249.773 75.734,249.073 74.531 C 248.374 73.328,247.434 71.641,246.986 70.781 C 246.537 69.922,246.048 69.172,245.898 69.115 C 245.748 69.057,245.625 68.811,245.625 68.568 C 245.625 68.324,245.484 68.125,245.313 68.125 C 245.141 68.125,245.000 67.844,245.000 67.500 C 245.000 67.156,244.884 66.875,244.743 66.875 C 244.601 66.875,244.182 66.267,243.811 65.524 C 243.440 64.781,242.793 63.774,242.374 63.286 C 241.955 62.798,241.368 61.859,241.071 61.199 C 240.773 60.540,240.411 60.000,240.265 60.000 C 240.119 60.000,240.000 59.789,240.000 59.531 C 240.000 59.273,239.894 59.063,239.764 59.063 C 239.634 59.063,239.353 58.676,239.139 58.203 C 238.925 57.730,238.467 56.992,238.121 56.563 C 237.775 56.133,236.896 54.867,236.168 53.750 C 235.440 52.633,234.620 51.470,234.347 51.167 C 234.074 50.863,233.652 50.230,233.409 49.760 C 233.167 49.291,232.803 48.730,232.600 48.516 C 232.398 48.301,231.777 47.422,231.220 46.563 C 230.663 45.703,230.100 45.000,229.968 45.000 C 229.837 45.000,229.646 44.735,229.543 44.412 C 229.440 44.089,229.115 43.538,228.819 43.187 C 228.523 42.837,228.009 42.179,227.676 41.724 C 227.343 41.270,226.815 40.604,226.504 40.245 C 226.192 39.886,225.934 39.508,225.930 39.405 C 225.926 39.303,225.434 38.676,224.836 38.012 C 224.239 37.349,223.746 36.716,223.741 36.606 C 223.736 36.496,223.139 35.743,222.413 34.932 C 221.687 34.121,220.672 32.935,220.156 32.296 C 219.641 31.657,218.727 30.564,218.125 29.867 C 217.523 29.171,216.891 28.425,216.719 28.212 C 214.715 25.717,206.538 17.386,204.003 15.254 C 203.121 14.513,202.020 13.520,201.557 13.047 C 200.491 11.961,199.442 11.963,198.413 13.053 M195.969 56.119 C 181.742 69.752,161.951 100.352,149.399 128.125 C 148.816 129.414,147.947 131.328,147.468 132.378 C 145.876 135.865,142.188 144.822,142.188 145.201 C 142.187 145.406,143.137 145.886,144.297 146.267 C 173.648 155.904,194.190 178.344,199.064 206.094 C 199.560 208.921,199.605 209.063,200.000 209.063 C 200.395 209.063,200.440 208.920,200.936 206.094 C 204.535 185.573,218.519 165.547,236.733 154.827 C 239.616 153.131,247.856 149.063,248.410 149.063 C 248.555 149.063,249.218 148.827,249.884 148.539 C 250.549 148.251,252.570 147.499,254.375 146.868 C 258.452 145.441,258.388 145.815,255.667 139.365 C 241.802 106.495,221.914 74.107,205.446 57.578 C 199.725 51.836,200.340 51.931,195.969 56.119 M201.643 55.078 C 202.429 55.809,203.541 56.839,204.114 57.368 C 204.687 57.897,206.211 59.494,207.500 60.917 C 208.789 62.340,210.167 63.841,210.561 64.252 C 210.956 64.663,211.195 65.000,211.094 65.000 C 210.992 65.000,211.232 65.326,211.626 65.725 C 212.021 66.124,212.625 66.838,212.969 67.313 C 213.313 67.787,213.852 68.481,214.167 68.853 C 215.689 70.652,216.471 71.642,217.188 72.677 C 217.617 73.298,218.355 74.269,218.828 74.835 C 219.301 75.401,219.688 76.021,219.688 76.213 C 219.688 76.405,219.796 76.563,219.929 76.563 C 220.062 76.563,220.435 77.055,220.759 77.656 C 221.083 78.258,221.450 78.750,221.574 78.750 C 221.698 78.750,221.974 79.172,222.188 79.688 C 222.401 80.203,222.690 80.625,222.829 80.625 C 222.969 80.625,223.164 80.881,223.264 81.195 C 223.363 81.508,223.689 82.036,223.988 82.367 C 224.287 82.698,224.730 83.353,224.972 83.823 C 225.214 84.293,225.636 84.925,225.909 85.229 C 226.553 85.944,228.125 88.361,228.125 88.636 C 228.125 88.752,228.477 89.308,228.906 89.872 C 229.336 90.435,229.688 90.990,229.688 91.106 C 229.688 91.221,230.109 91.941,230.625 92.705 C 231.141 93.469,231.563 94.227,231.563 94.391 C 231.563 94.554,231.682 94.688,231.828 94.688 C 231.973 94.688,232.358 95.285,232.681 96.016 C 233.005 96.746,233.448 97.530,233.666 97.757 C 233.884 97.984,234.063 98.290,234.063 98.438 C 234.063 98.585,234.241 98.891,234.459 99.118 C 234.677 99.345,235.120 100.129,235.444 100.859 C 235.767 101.590,236.117 102.188,236.221 102.188 C 236.325 102.188,236.609 102.645,236.852 103.203 C 237.095 103.762,237.381 104.289,237.488 104.375 C 237.595 104.461,238.098 105.375,238.604 106.406 C 239.111 107.438,239.608 108.352,239.709 108.438 C 239.811 108.523,240.093 109.051,240.336 109.609 C 240.579 110.168,240.867 110.625,240.977 110.625 C 241.087 110.625,241.280 110.941,241.406 111.328 C 241.532 111.715,241.659 112.102,241.689 112.188 C 241.996 113.078,242.944 114.688,243.161 114.688 C 243.313 114.688,243.438 114.838,243.438 115.022 C 243.438 115.206,244.441 117.421,245.667 119.944 C 246.893 122.467,248.194 125.164,248.558 125.938 C 248.921 126.711,249.324 127.391,249.453 127.448 C 249.582 127.505,249.688 127.753,249.688 127.999 C 249.688 128.245,249.818 128.690,249.977 128.989 C 250.640 130.233,252.461 134.304,252.841 135.391 C 253.066 136.035,253.351 136.562,253.473 136.562 C 253.595 136.562,253.790 137.125,253.906 137.813 C 254.022 138.500,254.246 139.063,254.402 139.063 C 254.559 139.063,254.688 139.269,254.688 139.522 C 254.688 139.774,254.945 140.442,255.260 141.006 C 255.728 141.845,256.875 144.832,256.875 145.212 C 256.875 145.267,256.770 145.292,256.641 145.267 C 256.130 145.166,253.726 145.724,253.568 145.979 C 253.476 146.128,253.057 146.250,252.638 146.250 C 252.218 146.250,251.875 146.391,251.875 146.563 C 251.875 146.734,251.594 146.875,251.250 146.875 C 250.906 146.875,250.625 147.016,250.625 147.188 C 250.625 147.359,250.370 147.500,250.058 147.500 C 249.747 147.500,248.763 147.852,247.873 148.281 C 246.982 148.711,245.971 149.063,245.627 149.063 C 245.282 149.063,245.000 149.203,245.000 149.375 C 245.000 149.547,244.730 149.688,244.401 149.688 C 244.072 149.687,243.755 149.793,243.698 149.922 C 243.541 150.275,240.386 151.875,239.846 151.875 C 239.587 151.875,239.375 151.989,239.375 152.129 C 239.375 152.269,238.883 152.576,238.281 152.813 C 237.680 153.049,237.188 153.333,237.188 153.444 C 237.188 153.555,236.414 154.051,235.469 154.545 C 234.523 155.040,233.750 155.555,233.750 155.691 C 233.750 155.827,233.539 155.938,233.281 155.938 C 233.023 155.938,232.813 156.078,232.813 156.250 C 232.813 156.422,232.602 156.563,232.344 156.563 C 232.086 156.563,231.875 156.673,231.875 156.808 C 231.875 156.942,231.428 157.317,230.882 157.639 C 229.870 158.237,229.408 158.590,227.745 160.040 C 226.207 161.380,225.973 161.563,225.787 161.563 C 225.527 161.563,218.092 169.106,217.182 170.293 C 216.755 170.849,216.263 171.468,216.087 171.668 C 214.254 173.758,210.625 178.877,210.625 179.374 C 210.625 179.546,210.508 179.688,210.365 179.688 C 210.222 179.688,209.906 180.074,209.662 180.547 C 209.418 181.020,208.762 182.228,208.203 183.233 C 207.645 184.238,207.188 185.257,207.188 185.499 C 207.188 185.740,207.047 185.938,206.875 185.938 C 206.703 185.938,206.563 186.092,206.563 186.280 C 206.563 186.468,206.311 186.996,206.004 187.452 C 205.696 187.908,205.184 189.055,204.866 190.000 C 204.548 190.945,204.167 191.852,204.019 192.016 C 203.871 192.179,203.750 192.561,203.750 192.865 C 203.750 193.170,203.469 193.919,203.125 194.531 C 202.781 195.143,202.500 195.853,202.500 196.107 C 202.500 196.362,202.365 196.815,202.200 197.114 C 202.035 197.412,201.763 198.289,201.595 199.063 C 201.427 199.836,201.126 201.031,200.925 201.719 C 200.725 202.406,200.490 203.496,200.404 204.141 C 200.318 204.785,200.136 205.313,200.000 205.313 C 199.864 205.313,199.682 204.785,199.596 204.141 C 199.510 203.496,199.275 202.406,199.075 201.719 C 198.874 201.031,198.573 199.836,198.405 199.063 C 198.237 198.289,197.965 197.412,197.800 197.114 C 197.635 196.815,197.500 196.362,197.500 196.107 C 197.500 195.853,197.219 195.143,196.875 194.531 C 196.531 193.919,196.250 193.170,196.250 192.865 C 196.250 192.561,196.129 192.179,195.981 192.016 C 195.833 191.852,195.452 190.945,195.134 190.000 C 194.816 189.055,194.304 187.908,193.996 187.452 C 193.689 186.996,193.438 186.468,193.438 186.280 C 193.438 186.092,193.297 185.938,193.125 185.938 C 192.953 185.938,192.813 185.740,192.813 185.499 C 192.813 185.257,192.355 184.238,191.797 183.233 C 191.238 182.228,190.582 181.020,190.338 180.547 C 190.094 180.074,189.778 179.688,189.635 179.688 C 189.492 179.688,189.375 179.546,189.375 179.374 C 189.375 178.877,185.746 173.758,183.913 171.668 C 183.737 171.468,183.245 170.849,182.818 170.293 C 181.908 169.106,174.473 161.563,174.213 161.563 C 174.027 161.563,173.793 161.380,172.255 160.040 C 170.592 158.590,170.130 158.237,169.118 157.639 C 168.572 157.317,168.125 156.942,168.125 156.808 C 168.125 156.673,167.914 156.563,167.656 156.563 C 167.398 156.563,167.188 156.422,167.188 156.250 C 167.188 156.078,166.977 155.938,166.719 155.938 C 166.461 155.938,166.250 155.827,166.250 155.691 C 166.250 155.555,165.477 155.040,164.531 154.545 C 163.586 154.051,162.813 153.555,162.813 153.444 C 162.813 153.333,162.320 153.049,161.719 152.813 C 161.117 152.576,160.625 152.269,160.625 152.129 C 160.625 151.989,160.413 151.875,160.154 151.875 C 159.614 151.875,156.459 150.275,156.302 149.922 C 156.245 149.793,155.928 149.688,155.599 149.688 C 155.270 149.688,155.000 149.547,155.000 149.375 C 155.000 149.203,154.718 149.063,154.373 149.063 C 154.029 149.063,153.018 148.711,152.127 148.281 C 151.237 147.852,150.253 147.500,149.942 147.500 C 149.630 147.500,149.375 147.359,149.375 147.188 C 149.375 147.016,149.094 146.875,148.750 146.875 C 148.406 146.875,148.125 146.734,148.125 146.563 C 148.125 146.391,147.782 146.250,147.362 146.250 C 146.943 146.250,146.524 146.128,146.432 145.979 C 146.274 145.724,143.870 145.166,143.359 145.267 C 143.230 145.292,143.125 145.267,143.125 145.212 C 143.125 144.832,144.272 141.845,144.740 141.006 C 145.055 140.442,145.313 139.774,145.313 139.522 C 145.313 139.269,145.441 139.063,145.598 139.063 C 145.754 139.063,145.978 138.500,146.094 137.813 C 146.210 137.125,146.405 136.563,146.527 136.563 C 146.649 136.563,146.934 136.035,147.159 135.391 C 147.539 134.304,149.360 130.233,150.023 128.989 C 150.182 128.690,150.313 128.245,150.313 127.999 C 150.313 127.753,150.418 127.505,150.547 127.448 C 150.676 127.391,151.079 126.711,151.442 125.938 C 151.806 125.164,153.107 122.467,154.333 119.944 C 155.559 117.421,156.563 115.206,156.563 115.022 C 156.563 114.838,156.687 114.688,156.839 114.688 C 157.056 114.688,158.004 113.078,158.311 112.188 C 158.341 112.102,158.468 111.715,158.594 111.328 C 158.720 110.941,158.913 110.625,159.023 110.625 C 159.133 110.625,159.421 110.168,159.664 109.609 C 159.907 109.051,160.189 108.523,160.291 108.438 C 160.392 108.352,160.889 107.438,161.396 106.406 C 161.902 105.375,162.405 104.461,162.512 104.375 C 162.619 104.289,162.905 103.762,163.148 103.203 C 163.391 102.645,163.675 102.188,163.779 102.188 C 163.883 102.188,164.233 101.590,164.556 100.859 C 164.880 100.129,165.323 99.345,165.541 99.118 C 165.759 98.891,165.938 98.585,165.938 98.438 C 165.938 98.290,166.116 97.984,166.334 97.757 C 166.552 97.530,166.995 96.746,167.319 96.016 C 167.642 95.285,168.027 94.688,168.172 94.688 C 168.318 94.688,168.438 94.554,168.438 94.391 C 168.438 94.227,168.859 93.469,169.375 92.705 C 169.891 91.941,170.313 91.221,170.313 91.106 C 170.313 90.990,170.664 90.435,171.094 89.872 C 171.523 89.308,171.875 88.752,171.875 88.636 C 171.875 88.361,173.447 85.944,174.091 85.229 C 174.364 84.925,174.786 84.293,175.028 83.823 C 175.270 83.353,175.713 82.698,176.012 82.367 C 176.311 82.036,176.637 81.508,176.736 81.195 C 176.836 80.881,177.031 80.625,177.171 80.625 C 177.310 80.625,177.599 80.203,177.813 79.688 C 178.026 79.172,178.302 78.750,178.426 78.750 C 178.550 78.750,178.917 78.258,179.241 77.656 C 179.565 77.055,179.938 76.563,180.071 76.563 C 180.204 76.563,180.313 76.405,180.313 76.213 C 180.313 76.021,180.699 75.401,181.172 74.835 C 181.645 74.269,182.383 73.298,182.813 72.677 C 183.529 71.642,184.311 70.652,185.833 68.853 C 186.148 68.481,186.688 67.787,187.031 67.313 C 187.375 66.838,187.979 66.124,188.374 65.725 C 188.768 65.326,189.008 65.000,188.906 65.000 C 188.805 65.000,189.044 64.663,189.439 64.252 C 189.833 63.841,191.211 62.340,192.500 60.917 C 193.789 59.494,195.313 57.897,195.886 57.368 C 196.459 56.839,197.571 55.809,198.357 55.078 C 199.144 54.348,199.883 53.750,200.000 53.750 C 200.117 53.750,200.856 54.348,201.643 55.078 M291.858 97.343 C 290.138 97.766,285.905 99.011,281.748 100.315 C 275.728 102.205,264.688 106.517,264.688 106.978 C 264.688 107.182,265.474 109.105,266.436 111.252 C 269.348 117.753,273.190 127.703,275.485 134.688 C 277.507 140.841,277.442 140.718,278.555 140.523 C 279.092 140.428,280.770 140.129,282.285 139.858 C 285.921 139.207,292.624 138.252,297.633 137.672 C 302.640 137.092,302.394 137.372,301.894 132.813 C 301.734 131.352,301.444 128.609,301.251 126.719 C 300.621 120.581,299.192 112.109,297.948 107.143 C 297.675 106.050,297.374 104.836,297.281 104.445 C 297.188 104.054,296.601 102.225,295.978 100.382 C 294.701 96.609,294.736 96.635,291.858 97.343 M105.214 97.422 C 102.903 101.416,99.090 121.278,98.262 133.639 C 98.013 137.352,97.615 136.990,102.500 137.504 C 106.109 137.884,113.650 138.970,119.955 140.016 C 122.665 140.466,122.450 140.650,123.627 136.875 C 125.647 130.394,130.753 117.089,133.879 110.159 C 134.654 108.442,135.188 106.939,135.066 106.819 C 133.207 104.990,105.823 96.369,105.214 97.422 M107.344 98.438 C 107.450 98.609,108.091 98.750,108.768 98.750 C 109.446 98.750,110.000 98.891,110.000 99.063 C 110.000 99.234,110.316 99.374,110.703 99.372 C 111.678 99.369,115.758 100.416,115.885 100.703 C 115.943 100.832,116.321 100.938,116.726 100.938 C 117.132 100.938,117.550 101.078,117.656 101.250 C 117.762 101.422,118.193 101.563,118.612 101.563 C 119.032 101.563,119.375 101.703,119.375 101.875 C 119.375 102.047,119.769 102.188,120.250 102.188 C 120.731 102.188,121.259 102.308,121.422 102.455 C 121.790 102.787,124.786 103.750,125.449 103.750 C 125.718 103.750,125.938 103.891,125.938 104.063 C 125.938 104.234,126.219 104.375,126.563 104.375 C 126.906 104.375,127.188 104.516,127.188 104.688 C 127.188 104.859,127.539 105.000,127.969 105.000 C 128.398 105.000,128.750 105.141,128.750 105.313 C 128.750 105.484,129.137 105.626,129.609 105.626 C 130.082 105.627,131.161 105.979,132.006 106.408 C 132.852 106.837,133.729 107.188,133.957 107.188 C 134.231 107.188,134.003 107.880,133.279 109.245 C 132.679 110.376,132.188 111.563,132.188 111.883 C 132.188 112.202,132.068 112.537,131.921 112.628 C 131.775 112.718,131.412 113.465,131.115 114.287 C 130.603 115.705,129.636 117.952,129.028 119.136 C 128.875 119.435,128.750 119.935,128.750 120.249 C 128.750 120.562,128.544 121.091,128.291 121.425 C 128.039 121.758,127.828 122.214,127.822 122.437 C 127.817 122.660,127.531 123.425,127.188 124.136 C 126.844 124.848,126.563 125.685,126.563 125.996 C 126.563 126.308,126.422 126.563,126.250 126.563 C 126.078 126.563,125.938 126.835,125.938 127.169 C 125.938 127.503,125.815 127.851,125.666 127.943 C 125.517 128.036,125.303 128.683,125.191 129.382 C 125.080 130.081,124.850 130.927,124.682 131.264 C 124.513 131.600,124.234 132.154,124.063 132.496 C 123.891 132.837,123.750 133.402,123.750 133.750 C 123.750 134.098,123.626 134.628,123.474 134.926 C 122.809 136.232,122.486 137.113,122.240 138.281 C 122.063 139.122,121.832 139.495,121.535 139.420 C 121.292 139.358,120.250 139.190,119.219 139.046 C 118.188 138.902,116.570 138.625,115.625 138.430 C 114.680 138.235,113.273 138.003,112.500 137.914 C 111.727 137.825,110.960 137.625,110.797 137.470 C 110.634 137.314,109.341 137.188,107.925 137.188 C 106.508 137.188,105.262 137.047,105.156 136.875 C 105.050 136.703,104.093 136.561,103.028 136.559 C 99.376 136.553,98.658 136.314,98.910 135.189 C 99.030 134.655,99.187 133.023,99.261 131.563 C 99.334 130.102,99.525 128.625,99.686 128.281 C 99.846 127.938,100.046 126.672,100.130 125.469 C 100.339 122.470,101.086 116.510,101.324 115.938 C 101.432 115.680,101.605 114.906,101.709 114.219 C 101.814 113.531,101.979 112.441,102.076 111.795 C 102.174 111.149,102.379 110.543,102.533 110.448 C 102.687 110.353,102.813 109.721,102.813 109.044 C 102.813 108.367,102.953 107.813,103.125 107.813 C 103.297 107.813,103.438 107.470,103.438 107.051 C 103.438 106.632,103.652 105.331,103.915 104.160 C 104.361 102.172,104.669 101.263,105.349 99.926 C 105.501 99.628,105.625 99.100,105.625 98.754 C 105.625 98.078,106.968 97.830,107.344 98.438 M294.375 98.754 C 294.375 99.100,294.499 99.628,294.651 99.926 C 295.331 101.263,295.639 102.172,296.085 104.160 C 296.348 105.331,296.563 106.632,296.563 107.051 C 296.563 107.470,296.703 107.813,296.875 107.813 C 297.047 107.813,297.188 108.367,297.188 109.044 C 297.188 109.721,297.313 110.353,297.467 110.448 C 297.621 110.543,297.826 111.149,297.924 111.795 C 298.021 112.441,298.186 113.531,298.291 114.219 C 298.395 114.906,298.568 115.680,298.676 115.938 C 298.914 116.510,299.661 122.470,299.870 125.469 C 299.954 126.672,300.154 127.938,300.314 128.281 C 300.475 128.625,300.664 130.102,300.734 131.563 C 300.805 133.023,300.945 134.658,301.046 135.195 C 301.258 136.327,300.582 136.553,296.972 136.559 C 295.907 136.561,294.950 136.703,294.844 136.875 C 294.738 137.047,293.492 137.188,292.075 137.188 C 290.659 137.188,289.366 137.314,289.203 137.470 C 289.040 137.625,288.273 137.825,287.500 137.914 C 286.727 138.003,285.320 138.235,284.375 138.430 C 283.430 138.625,281.813 138.902,280.781 139.046 C 279.750 139.190,278.708 139.358,278.465 139.420 C 278.168 139.495,277.937 139.122,277.760 138.281 C 277.514 137.113,277.191 136.232,276.526 134.926 C 276.374 134.628,276.250 134.098,276.250 133.750 C 276.250 133.402,276.109 132.837,275.938 132.496 C 275.766 132.154,275.487 131.600,275.318 131.264 C 275.150 130.927,274.920 130.081,274.809 129.382 C 274.697 128.683,274.483 128.036,274.334 127.943 C 274.185 127.851,274.063 127.503,274.063 127.169 C 274.063 126.835,273.922 126.563,273.750 126.563 C 273.578 126.563,273.438 126.308,273.438 125.996 C 273.438 125.685,273.156 124.848,272.813 124.136 C 272.469 123.425,272.183 122.660,272.178 122.437 C 272.172 122.214,271.961 121.758,271.709 121.425 C 271.456 121.091,271.250 120.562,271.250 120.249 C 271.250 119.935,271.125 119.435,270.972 119.136 C 270.364 117.952,269.397 115.705,268.885 114.287 C 268.588 113.465,268.225 112.718,268.079 112.628 C 267.932 112.537,267.813 112.202,267.813 111.883 C 267.813 111.563,267.321 110.376,266.721 109.245 C 265.997 107.880,265.769 107.188,266.043 107.188 C 266.271 107.188,267.148 106.837,267.994 106.408 C 268.839 105.979,269.918 105.627,270.391 105.626 C 270.863 105.626,271.250 105.484,271.250 105.313 C 271.250 105.141,271.602 105.000,272.031 105.000 C 272.461 105.000,272.813 104.859,272.813 104.688 C 272.813 104.516,273.094 104.375,273.438 104.375 C 273.781 104.375,274.063 104.234,274.063 104.063 C 274.063 103.891,274.282 103.750,274.551 103.750 C 275.214 103.750,278.210 102.787,278.578 102.455 C 278.741 102.308,279.269 102.188,279.750 102.188 C 280.231 102.188,280.625 102.047,280.625 101.875 C 280.625 101.703,280.968 101.563,281.388 101.563 C 281.807 101.563,282.238 101.422,282.344 101.250 C 282.450 101.078,282.868 100.938,283.274 100.938 C 283.679 100.938,284.057 100.832,284.115 100.703 C 284.242 100.416,288.322 99.369,289.297 99.372 C 289.684 99.374,290.000 99.234,290.000 99.063 C 290.000 98.891,290.554 98.750,291.232 98.750 C 291.909 98.750,292.550 98.609,292.656 98.438 C 293.032 97.830,294.375 98.078,294.375 98.754 M200.313 215.156 C 200.313 215.414,200.172 215.625,200.000 215.625 C 199.828 215.625,199.688 215.414,199.688 215.156 C 199.688 214.898,199.828 214.688,200.000 214.688 C 200.172 214.688,200.313 214.898,200.313 215.156 " stroke="none" fill="#457265" fill-rule="evenodd"></path><path id="path1" d="M198.120 14.591 C 185.375 25.499,169.855 44.961,156.676 66.563 C 152.834 72.860,151.535 75.095,148.459 80.703 C 146.914 83.521,147.238 83.416,144.294 82.056 C 133.264 76.961,113.932 70.622,103.750 68.761 C 102.633 68.557,101.086 68.261,100.313 68.103 C 95.057 67.028,86.993 66.491,86.563 67.187 C 85.522 68.871,81.870 81.616,80.428 88.594 C 79.244 94.323,78.617 98.016,77.512 105.781 C 76.783 110.899,75.927 121.593,75.442 131.641 L 75.250 135.625 67.806 135.625 C 59.219 135.625,51.023 136.070,41.875 137.034 C 34.252 137.837,31.425 138.173,31.216 138.302 C 31.102 138.372,30.114 138.568,29.020 138.736 C 27.926 138.905,26.539 139.121,25.938 139.218 C 24.928 139.379,22.556 139.878,19.063 140.663 C 16.380 141.267,11.700 142.582,8.125 143.737 L 4.531 144.898 4.555 147.839 C 4.602 153.704,7.233 167.647,10.004 176.719 C 10.371 177.922,10.814 179.398,10.986 180.000 C 11.920 183.250,14.649 190.744,16.959 196.406 C 38.688 249.664,78.229 291.641,112.969 298.331 C 119.651 299.618,123.426 299.970,128.594 299.791 C 150.810 299.019,156.705 290.887,146.315 275.344 C 135.846 259.680,111.811 245.877,85.357 240.335 C 80.261 239.268,79.662 239.509,83.108 241.242 C 110.673 255.101,129.238 267.668,132.859 274.919 C 140.455 290.130,114.423 293.675,96.719 279.841 C 80.081 266.841,60.212 236.308,45.169 200.625 C 43.683 197.102,42.341 193.938,42.187 193.594 C 40.579 190.014,34.975 173.266,33.612 167.969 C 32.380 163.178,32.398 162.830,33.906 162.277 C 46.610 157.619,72.895 155.402,98.438 156.834 C 105.628 157.237,106.358 157.296,112.764 157.987 C 118.211 158.575,117.785 158.059,116.878 162.969 C 114.077 178.124,114.358 193.119,117.701 206.875 C 122.447 226.403,132.817 243.792,147.105 256.177 C 149.611 258.350,150.134 258.146,147.989 255.832 C 144.059 251.593,138.020 241.277,135.182 233.951 C 129.296 218.761,127.705 204.914,129.880 187.813 C 130.644 181.808,134.946 164.045,136.081 162.208 C 136.809 161.030,152.592 165.603,161.875 169.683 C 179.076 177.243,192.867 192.510,198.787 210.547 C 200.040 214.364,200.003 214.347,200.894 211.484 C 208.756 186.222,227.645 170.365,259.047 162.669 C 264.410 161.354,263.795 160.950,265.529 166.929 C 275.601 201.662,271.640 230.887,253.768 253.710 C 250.355 258.068,250.441 257.947,251.008 257.629 C 252.032 257.055,257.995 251.327,260.576 248.438 C 274.221 233.164,282.227 214.473,284.605 192.344 C 285.402 184.934,284.560 170.762,282.815 162.198 C 282.023 158.313,282.050 158.266,285.243 157.983 C 286.570 157.865,288.008 157.721,288.438 157.661 C 288.867 157.602,290.344 157.469,291.719 157.364 C 293.094 157.260,295.625 157.037,297.344 156.867 C 310.969 155.525,333.925 156.031,348.594 157.995 C 355.762 158.955,367.370 161.797,367.706 162.674 C 367.979 163.385,365.384 173.886,364.390 176.094 C 364.235 176.438,363.519 178.547,362.800 180.781 C 349.207 222.981,318.916 271.272,298.367 283.499 C 287.157 290.170,271.061 290.446,267.015 284.037 C 261.203 274.830,275.524 262.257,314.843 242.049 C 318.204 240.322,319.598 239.411,318.281 239.803 C 317.938 239.906,316.950 240.123,316.087 240.286 C 309.554 241.519,300.334 244.135,295.156 246.226 C 274.800 254.444,261.352 263.931,253.713 275.459 C 245.125 288.418,247.645 295.912,261.493 298.595 C 289.595 304.041,319.597 289.334,346.920 256.719 C 362.506 238.115,377.564 211.570,385.921 187.969 C 386.469 186.422,387.039 184.875,387.187 184.531 C 389.394 179.432,393.907 160.475,394.516 153.750 C 394.819 150.410,395.001 148.576,395.185 147.002 L 395.372 145.409 393.702 144.757 C 380.720 139.683,359.041 136.468,334.531 135.980 L 324.531 135.781 324.309 131.875 C 323.652 120.352,323.351 116.009,322.946 112.188 C 322.398 107.026,321.380 99.510,320.746 95.938 C 320.486 94.477,320.205 92.789,320.121 92.188 C 320.037 91.586,319.847 90.602,319.700 90.000 C 319.552 89.398,319.284 88.203,319.104 87.344 C 317.776 81.025,315.326 72.547,313.534 68.066 C 312.921 66.535,312.985 66.536,302.969 67.841 C 295.988 68.749,285.059 71.344,277.188 73.961 C 269.866 76.395,260.474 79.993,255.562 82.244 C 252.865 83.480,253.061 83.615,250.229 78.555 C 247.405 73.510,246.951 72.728,244.536 68.750 C 243.545 67.117,242.234 64.938,241.623 63.906 C 231.589 46.964,214.595 25.832,202.212 14.897 C 199.808 12.774,200.208 12.804,198.120 14.591 M205.446 57.578 C 221.914 74.107,241.802 106.495,255.667 139.365 C 258.388 145.815,258.452 145.441,254.375 146.868 C 252.570 147.499,250.549 148.251,249.884 148.539 C 249.218 148.827,248.555 149.063,248.410 149.063 C 247.856 149.063,239.616 153.131,236.733 154.827 C 218.519 165.547,204.535 185.573,200.936 206.094 C 200.440 208.920,200.395 209.063,200.000 209.063 C 199.605 209.063,199.560 208.921,199.064 206.094 C 194.190 178.344,173.648 155.904,144.297 146.267 C 143.137 145.886,142.187 145.406,142.188 145.201 C 142.188 144.822,145.876 135.865,147.468 132.378 C 147.947 131.328,148.816 129.414,149.399 128.125 C 161.951 100.352,181.742 69.752,195.969 56.119 C 200.340 51.931,199.725 51.836,205.446 57.578 M295.978 100.382 C 296.601 102.225,297.188 104.054,297.281 104.445 C 297.374 104.836,297.675 106.050,297.948 107.143 C 299.192 112.109,300.621 120.581,301.251 126.719 C 301.444 128.609,301.734 131.352,301.894 132.813 C 302.394 137.372,302.640 137.092,297.633 137.672 C 292.624 138.252,285.921 139.207,282.285 139.858 C 280.770 140.129,279.092 140.428,278.555 140.523 C 277.442 140.718,277.507 140.841,275.485 134.688 C 273.190 127.703,269.348 117.753,266.436 111.252 C 265.474 109.105,264.688 107.182,264.688 106.978 C 264.688 106.517,275.728 102.205,281.748 100.315 C 295.312 96.059,294.513 96.055,295.978 100.382 M109.741 97.982 C 115.648 99.480,134.178 105.946,135.066 106.819 C 135.188 106.939,134.654 108.442,133.879 110.159 C 130.753 117.089,125.647 130.394,123.627 136.875 C 122.450 140.650,122.665 140.466,119.955 140.016 C 113.650 138.970,106.109 137.884,102.500 137.504 C 97.615 136.990,98.013 137.352,98.262 133.639 C 99.090 121.278,102.903 101.416,105.214 97.422 C 105.442 97.027,106.475 97.154,109.741 97.982 M199.688 215.156 C 199.688 215.414,199.828 215.625,200.000 215.625 C 200.172 215.625,200.313 215.414,200.313 215.156 C 200.313 214.898,200.172 214.688,200.000 214.688 C 199.828 214.688,199.688 214.898,199.688 215.156 " stroke="none" fill="#05866c" fill-rule="evenodd"></path></g></svg>